# Mag | length 4 | barrel -X up +Y
mtllib 06.mtl
g mag
v 0.232904 -0.740019 0.019139
v 0.232904 0.234564 0.019139
v 0.232904 0.234564 -0.098638
v 0.232904 -0.740019 -0.098638
v 0.232904 -0.740019 -0.098638
v 0.218402 -0.777169 -0.106735
v 0.218402 -0.777169 0.026500
v 0.218402 -0.777169 0.026500
v 0.218402 -0.842065 -0.106735
v 0.218402 -0.842065 0.026500
v 0.232904 0.234564 0.019139
v 0.484137 0.234564 0.019139
v 0.484137 0.234564 -0.098638
v 0.232904 0.234564 -0.098638
v 0.484137 0.234564 -0.098638
v 0.484137 -0.740019 -0.098638
v 0.232904 -0.740019 -0.098638
v 0.232904 0.234564 -0.098638
v 0.498638 -0.777169 -0.106735
v 0.484137 -0.740019 -0.098638
v 0.218402 -0.777169 -0.106735
v 0.498638 -0.842065 -0.106735
v 0.218402 -0.777169 -0.106735
v 0.218402 -0.842065 -0.106735
v 0.484137 0.234564 0.019139
v 0.484137 -0.740019 0.019139
v 0.484137 -0.740019 -0.098638
v 0.484137 0.234564 -0.098638
v 0.498638 -0.777169 0.026500
v 0.498638 -0.777169 -0.106735
v 0.484137 -0.740019 0.019139
v 0.498638 -0.842065 0.026500
v 0.498638 -0.777169 -0.106735
v 0.498638 -0.842065 -0.106735
v 0.498638 -0.842065 0.026500
v 0.218402 -0.842065 0.026500
v 0.218402 -0.842065 -0.106735
v 0.498638 -0.842065 -0.106735
v 0.232904 0.234564 0.019139
v 0.484137 -0.740019 0.019139
v 0.484137 0.234564 0.019139
v 0.232904 -0.740019 0.019139
v 0.498638 -0.777169 0.026500
v 0.218402 -0.777169 0.026500
v 0.484137 -0.740019 0.019139
v 0.218402 -0.842065 0.026500
v 0.218402 -0.777169 0.026500
v 0.498638 -0.842065 0.026500
v 0.209864 -0.733496 0.039013
v 0.209864 0.267387 0.039013
v 0.209864 0.267387 -0.118513
v 0.209864 -0.733496 -0.118513
v 0.193080 -0.768734 0.047847
v 0.193080 -0.768734 -0.127347
v 0.193080 -0.851171 -0.127347
v 0.193080 -0.851171 0.047847
v 0.508723 0.267387 0.039013
v 0.209864 0.267387 -0.118513
v 0.209864 0.267387 0.039013
v 0.508723 0.267387 -0.118513
v 0.508723 0.267387 -0.118513
v 0.508723 -0.733496 -0.118513
v 0.209864 -0.733496 -0.118513
v 0.209864 0.267387 -0.118513
v 0.193080 -0.768734 -0.127347
v 0.525506 -0.768734 -0.127347
v 0.525506 -0.851171 -0.127347
v 0.193080 -0.851171 -0.127347
v 0.508723 0.267387 0.039013
v 0.508723 -0.733496 0.039013
v 0.508723 -0.733496 -0.118513
v 0.508723 0.267387 -0.118513
v 0.525506 -0.768734 0.047847
v 0.525506 -0.768734 -0.127347
v 0.525506 -0.851171 0.047847
v 0.525506 -0.851171 -0.127347
v 0.525506 -0.851171 0.047847
v 0.193080 -0.851171 0.047847
v 0.193080 -0.851171 -0.127347
v 0.525506 -0.851171 -0.127347
v 0.209864 0.267387 0.039013
v 0.508723 -0.733496 0.039013
v 0.508723 0.267387 0.039013
v 0.209864 -0.733496 0.039013
v 0.193080 -0.768734 0.047847
v 0.525506 -0.768734 0.047847
v 0.193080 -0.851171 0.047847
v 0.525506 -0.851171 0.047847
v 0.438057 -0.747158 -0.039750
v 0.370114 -0.661903 -0.039750
v 0.444461 -0.747158 -0.055208
v 0.370114 -0.661903 -0.039750
v 0.444461 -0.747158 -0.024292
v 0.374016 -0.656860 -0.024292
v 0.438057 -0.747158 -0.039750
v 0.374016 -0.656860 -0.055208
v 0.444461 -0.747158 -0.055208
v 0.370114 -0.661903 -0.039750
v 0.296283 -0.603574 -0.039750
v 0.248362 -0.491781 -0.039750
v 0.300184 -0.598531 -0.055208
v 0.254692 -0.490677 -0.055208
v 0.235775 -0.403021 -0.039750
v 0.254692 -0.490677 -0.024292
v 0.242032 -0.401917 -0.024292
v 0.242032 -0.401917 -0.024292
v 0.264630 -0.306327 -0.024292
v 0.305263 -0.241285 -0.039750
v 0.259698 -0.300791 -0.039750
v 0.308134 -0.249205 -0.024292
v 0.419433 -0.159864 -0.024292
v 0.444461 -0.093585 -0.024292
v 0.414795 -0.153718 -0.039750
v 0.444461 -0.093585 -0.055208
v 0.419433 -0.159864 -0.055208
v 0.254692 -0.490677 -0.055208
v 0.235775 -0.403021 -0.039750
v 0.242032 -0.401917 -0.055208
v 0.248362 -0.491781 -0.039750
v 0.254692 -0.490677 -0.024292
v 0.300184 -0.598531 -0.024292
v 0.296283 -0.603574 -0.039750
v 0.264630 -0.306327 -0.055208
v 0.242032 -0.401917 -0.055208
v 0.259698 -0.300791 -0.039750
v 0.264630 -0.306327 -0.024292
v 0.308134 -0.249205 -0.055208
v 0.305263 -0.241285 -0.039750
v 0.308134 -0.249205 -0.024292
v 0.438130 -0.093165 -0.039750
v 0.414795 -0.153718 -0.039750
v 0.444461 -0.093585 -0.024292
v 0.444755 0.022190 -0.024292
v 0.444461 -0.093585 -0.055208
v 0.438424 0.022190 -0.039750
v 0.444755 0.022190 -0.055208
v 0.444755 0.228926 -0.024292
v 0.438424 0.228926 -0.039750
v 0.444755 0.022190 -0.024292
v 0.444755 0.022190 -0.055208
v 0.444755 0.228926 -0.055208
v 0.444461 -0.747158 -0.055208
v 0.455282 -0.839488 -0.055208
v 0.438057 -0.747158 -0.039750
v 0.448877 -0.839488 -0.039750
v 0.444461 -0.747158 -0.024292
v 0.455282 -0.839488 -0.024292
v 0.475378 0.228926 -0.024292
v 0.444755 0.228926 -0.024292
v 0.460066 0.228926 -0.018402
v 0.481708 0.228926 -0.039750
v 0.438424 0.228926 -0.039750
v 0.444755 0.228926 -0.055208
v 0.475378 0.228926 -0.055208
v 0.460066 0.228926 -0.061833
v 0.308134 -0.249205 -0.024292
v 0.356569 -0.199002 -0.039750
v 0.305263 -0.241285 -0.039750
v 0.308134 -0.249205 -0.055208
v 0.359367 -0.207004 -0.024292
v 0.414795 -0.153718 -0.039750
v 0.419433 -0.159864 -0.055208
v 0.359367 -0.207004 -0.055208
v 0.359367 -0.207004 -0.055208
v 0.308134 -0.249205 -0.055208
v 0.356569 -0.199002 -0.039750
v 0.414795 -0.153718 -0.039750
v 0.359367 -0.207004 -0.024292
v 0.419433 -0.159864 -0.024292
v 0.318954 -0.574181 -0.024292
v 0.392860 -0.632517 -0.024292
v 0.322856 -0.569139 -0.039750
v 0.396761 -0.627475 -0.039750
v 0.392860 -0.632517 -0.055208
v 0.318954 -0.574181 -0.055208
v 0.444461 -0.747158 -0.055208
v 0.383437 -0.644693 -0.061833
v 0.459846 -0.747158 -0.061833
v 0.383437 -0.644693 -0.061833
v 0.444461 -0.747158 -0.055208
v 0.374016 -0.656860 -0.055208
v 0.475378 0.022190 -0.055208
v 0.460066 0.228926 -0.061833
v 0.475378 0.228926 -0.055208
v 0.460066 0.022190 -0.061833
v 0.276628 -0.319680 -0.061833
v 0.242032 -0.401917 -0.055208
v 0.264630 -0.306327 -0.055208
v 0.254692 -0.490677 -0.055208
v 0.242032 -0.401917 -0.055208
v 0.269856 -0.488005 -0.061833
v 0.365992 -0.226320 -0.061833
v 0.308134 -0.249205 -0.055208
v 0.359367 -0.207004 -0.055208
v 0.430475 -0.174711 -0.061833
v 0.419433 -0.159864 -0.055208
v 0.459846 -0.094608 -0.061833
v 0.444461 -0.093585 -0.055208
v 0.309606 -0.586356 -0.061833
v 0.383437 -0.644693 -0.061833
v 0.300184 -0.598531 -0.055208
v 0.374016 -0.656860 -0.055208
v 0.254692 -0.490677 -0.055208
v 0.269856 -0.488005 -0.061833
v 0.242032 -0.401917 -0.055208
v 0.257196 -0.399245 -0.061833
v 0.242032 -0.401917 -0.055208
v 0.276628 -0.319680 -0.061833
v 0.257196 -0.399245 -0.061833
v 0.264630 -0.306327 -0.055208
v 0.315053 -0.268344 -0.061833
v 0.308134 -0.249205 -0.055208
v 0.365992 -0.226320 -0.061833
v 0.460066 0.022190 -0.061833
v 0.444461 -0.093585 -0.055208
v 0.444755 0.022190 -0.055208
v 0.459846 -0.094608 -0.061833
v 0.444755 0.228926 -0.055208
v 0.460066 0.022190 -0.061833
v 0.444755 0.022190 -0.055208
v 0.460066 0.228926 -0.061833
v 0.459846 -0.094608 -0.061833
v 0.475378 0.022190 -0.055208
v 0.475230 -0.095639 -0.055208
v 0.460066 0.022190 -0.061833
v 0.441590 -0.189558 -0.055208
v 0.365992 -0.226320 -0.061833
v 0.430475 -0.174711 -0.061833
v 0.372690 -0.245643 -0.055208
v 0.315053 -0.268344 -0.061833
v 0.276628 -0.319680 -0.061833
v 0.321973 -0.287482 -0.055208
v 0.288554 -0.333040 -0.055208
v 0.392860 -0.632517 -0.055208
v 0.459846 -0.747158 -0.061833
v 0.383437 -0.644693 -0.061833
v 0.459846 -0.747158 -0.061833
v 0.392860 -0.632517 -0.055208
v 0.475230 -0.747158 -0.055208
v 0.475230 -0.095639 -0.055208
v 0.430475 -0.174711 -0.061833
v 0.459846 -0.094608 -0.061833
v 0.441590 -0.189558 -0.055208
v 0.315053 -0.268344 -0.061833
v 0.372690 -0.245643 -0.055208
v 0.321973 -0.287482 -0.055208
v 0.276628 -0.319680 -0.061833
v 0.288554 -0.333040 -0.055208
v 0.257196 -0.399245 -0.061833
v 0.272359 -0.396574 -0.055208
v 0.269856 -0.488005 -0.061833
v 0.257196 -0.399245 -0.061833
v 0.284946 -0.485333 -0.055208
v 0.309606 -0.586356 -0.061833
v 0.318954 -0.574181 -0.055208
v 0.392860 -0.632517 -0.055208
v 0.383437 -0.644693 -0.061833
v 0.318954 -0.574181 -0.055208
v 0.269856 -0.488005 -0.061833
v 0.284946 -0.485333 -0.055208
v 0.257196 -0.399245 -0.061833
v 0.272359 -0.396574 -0.055208
v 0.459846 -0.747158 -0.061833
v 0.455282 -0.839488 -0.055208
v 0.444461 -0.747158 -0.055208
v 0.470666 -0.839488 -0.061833
v 0.470666 -0.839488 -0.061833
v 0.475230 -0.747158 -0.055208
v 0.486051 -0.839488 -0.055208
v 0.459846 -0.747158 -0.061833
v 0.441590 -0.189558 -0.024292
v 0.481561 -0.096058 -0.039750
v 0.475230 -0.095639 -0.024292
v 0.481708 0.022190 -0.039750
v 0.481708 0.228926 -0.039750
v 0.475378 0.022190 -0.024292
v 0.475378 0.228926 -0.024292
v 0.475378 0.228926 -0.055208
v 0.481561 -0.096058 -0.039750
v 0.441590 -0.189558 -0.024292
v 0.446154 -0.195712 -0.039750
v 0.441590 -0.189558 -0.055208
v 0.475378 0.022190 -0.024292
v 0.475230 -0.095639 -0.024292
v 0.481708 0.022190 -0.039750
v 0.475378 0.022190 -0.055208
v 0.475378 0.228926 -0.055208
v 0.475230 -0.095639 -0.055208
v 0.475378 0.022190 -0.055208
v 0.324770 -0.295403 -0.039750
v 0.288554 -0.333040 -0.055208
v 0.321973 -0.287482 -0.055208
v 0.293486 -0.338575 -0.039750
v 0.272359 -0.396574 -0.055208
v 0.272359 -0.396574 -0.024292
v 0.288554 -0.333040 -0.024292
v 0.321973 -0.287482 -0.024292
v 0.288554 -0.333040 -0.055208
v 0.324770 -0.295403 -0.039750
v 0.293486 -0.338575 -0.039750
v 0.272359 -0.396574 -0.055208
v 0.278616 -0.395469 -0.039750
v 0.288554 -0.333040 -0.024292
v 0.272359 -0.396574 -0.024292
v 0.322856 -0.569139 -0.039750
v 0.284946 -0.485333 -0.024292
v 0.318954 -0.574181 -0.024292
v 0.291277 -0.484222 -0.039750
v 0.272359 -0.396574 -0.024292
v 0.278616 -0.395469 -0.039750
v 0.272359 -0.396574 -0.055208
v 0.284946 -0.485333 -0.055208
v 0.318954 -0.574181 -0.055208
v 0.481561 -0.747158 -0.039750
v 0.392860 -0.632517 -0.055208
v 0.396761 -0.627475 -0.039750
v 0.481561 -0.747158 -0.039750
v 0.392860 -0.632517 -0.024292
v 0.475230 -0.747158 -0.024292
v 0.396761 -0.627475 -0.039750
v 0.392860 -0.632517 -0.055208
v 0.481561 -0.747158 -0.039750
v 0.475230 -0.747158 -0.055208
v 0.284946 -0.485333 -0.024292
v 0.322856 -0.569139 -0.039750
v 0.291277 -0.484222 -0.039750
v 0.486051 -0.839488 -0.024292
v 0.481561 -0.747158 -0.039750
v 0.475230 -0.747158 -0.024292
v 0.492455 -0.839488 -0.039750
v 0.475230 -0.747158 -0.055208
v 0.486051 -0.839488 -0.055208
v 0.470666 -0.839488 -0.061833
v 0.455282 -0.839488 -0.024292
v 0.455282 -0.839488 -0.055208
v 0.448877 -0.839488 -0.039750
v 0.470666 -0.839488 -0.018402
v 0.486051 -0.839488 -0.055208
v 0.486051 -0.839488 -0.024292
v 0.492455 -0.839488 -0.039750
v 0.300184 -0.598531 -0.055208
v 0.370114 -0.661903 -0.039750
v 0.296283 -0.603574 -0.039750
v 0.374016 -0.656860 -0.055208
v 0.300184 -0.598531 -0.024292
v 0.300184 -0.598531 -0.024292
v 0.370114 -0.661903 -0.039750
v 0.374016 -0.656860 -0.024292
v 0.441590 -0.189558 -0.024292
v 0.375487 -0.253636 -0.039750
v 0.446154 -0.195712 -0.039750
v 0.372690 -0.245643 -0.024292
v 0.372690 -0.245643 -0.055208
v 0.324770 -0.295403 -0.039750
v 0.321973 -0.287482 -0.055208
v 0.375487 -0.253636 -0.039750
v 0.441590 -0.189558 -0.055208
v 0.446154 -0.195712 -0.039750
v 0.372690 -0.245643 -0.055208
v 0.324770 -0.295403 -0.039750
v 0.372690 -0.245643 -0.024292
v 0.321973 -0.287482 -0.024292
v 0.459846 -0.747158 -0.018402
v 0.383437 -0.644693 -0.018402
v 0.444461 -0.747158 -0.024292
v 0.374016 -0.656860 -0.024292
v 0.475378 0.022190 -0.024292
v 0.459846 -0.094608 -0.018402
v 0.475230 -0.095639 -0.024292
v 0.460066 0.228926 -0.018402
v 0.460066 0.022190 -0.018402
v 0.475378 0.228926 -0.024292
v 0.276628 -0.319680 -0.018402
v 0.315053 -0.268344 -0.018402
v 0.264630 -0.306327 -0.024292
v 0.242032 -0.401917 -0.024292
v 0.257196 -0.399245 -0.018402
v 0.475378 0.228926 -0.024292
v 0.460066 0.022190 -0.018402
v 0.475378 0.022190 -0.024292
v 0.383437 -0.644693 -0.018402
v 0.300184 -0.598531 -0.024292
v 0.374016 -0.656860 -0.024292
v 0.309606 -0.586356 -0.018402
v 0.254692 -0.490677 -0.024292
v 0.269856 -0.488005 -0.018402
v 0.242032 -0.401917 -0.024292
v 0.257196 -0.399245 -0.018402
v 0.308134 -0.249205 -0.024292
v 0.264630 -0.306327 -0.024292
v 0.315053 -0.268344 -0.018402
v 0.365992 -0.226320 -0.018402
v 0.430475 -0.174711 -0.018402
v 0.359367 -0.207004 -0.024292
v 0.419433 -0.159864 -0.024292
v 0.459846 -0.094608 -0.018402
v 0.460066 0.022190 -0.018402
v 0.444461 -0.093585 -0.024292
v 0.444755 0.022190 -0.024292
v 0.309606 -0.586356 -0.018402
v 0.254692 -0.490677 -0.024292
v 0.300184 -0.598531 -0.024292
v 0.365992 -0.226320 -0.018402
v 0.359367 -0.207004 -0.024292
v 0.308134 -0.249205 -0.024292
v 0.419433 -0.159864 -0.024292
v 0.459846 -0.094608 -0.018402
v 0.444461 -0.093585 -0.024292
v 0.444755 0.228926 -0.024292
v 0.444755 0.022190 -0.024292
v 0.460066 0.228926 -0.018402
v 0.460066 0.022190 -0.018402
v 0.372690 -0.245643 -0.024292
v 0.441590 -0.189558 -0.024292
v 0.365992 -0.226320 -0.018402
v 0.430475 -0.174711 -0.018402
v 0.475230 -0.095639 -0.024292
v 0.459846 -0.094608 -0.018402
v 0.460066 0.022190 -0.018402
v 0.475378 0.022190 -0.024292
v 0.288554 -0.333040 -0.024292
v 0.321973 -0.287482 -0.024292
v 0.276628 -0.319680 -0.018402
v 0.315053 -0.268344 -0.018402
v 0.257196 -0.399245 -0.018402
v 0.475230 -0.747158 -0.024292
v 0.392860 -0.632517 -0.024292
v 0.459846 -0.747158 -0.018402
v 0.383437 -0.644693 -0.018402
v 0.321973 -0.287482 -0.024292
v 0.372690 -0.245643 -0.024292
v 0.315053 -0.268344 -0.018402
v 0.365992 -0.226320 -0.018402
v 0.288554 -0.333040 -0.024292
v 0.257196 -0.399245 -0.018402
v 0.272359 -0.396574 -0.024292
v 0.284946 -0.485333 -0.024292
v 0.257196 -0.399245 -0.018402
v 0.269856 -0.488005 -0.018402
v 0.318954 -0.574181 -0.024292
v 0.309606 -0.586356 -0.018402
v 0.392860 -0.632517 -0.024292
v 0.383437 -0.644693 -0.018402
v 0.272359 -0.396574 -0.024292
v 0.269856 -0.488005 -0.018402
v 0.318954 -0.574181 -0.024292
v 0.284946 -0.485333 -0.024292
v 0.444461 -0.747158 -0.024292
v 0.455282 -0.839488 -0.024292
v 0.459846 -0.747158 -0.018402
v 0.470666 -0.839488 -0.018402
v 0.475230 -0.747158 -0.024292
v 0.486051 -0.839488 -0.024292
vt 28.01 -15.0741 
vt 28.01 -14.9086 
vt 27.99 -14.9086 
vt 27.99 -15.0741 
vt 27.99 -15.0741 
vt 27.9887 -15.0804 
vt 28.0113 -15.0804 
vt 28.0113 -15.0804 
vt 27.9887 -15.0914 
vt 28.0113 -15.0914 
vt 27.9787 -15.01 
vt 28.0213 -15.01 
vt 28.0213 -14.99 
vt 27.9787 -14.99 
vt 27.9787 -14.9086 
vt 27.9787 -15.0741 
vt 28.0213 -15.0741 
vt 28.0213 -14.9086 
vt 27.9762 -15.0804 
vt 27.9787 -15.0741 
vt 28.0238 -15.0804 
vt 27.9762 -15.0914 
vt 28.0238 -15.0804 
vt 28.0238 -15.0914 
vt 27.99 -14.9086 
vt 27.99 -15.0741 
vt 28.01 -15.0741 
vt 28.01 -14.9086 
vt 27.9887 -15.0804 
vt 28.0113 -15.0804 
vt 27.99 -15.0741 
vt 27.9887 -15.0914 
vt 28.0113 -15.0804 
vt 28.0113 -15.0914 
vt 27.9762 -15.0113 
vt 28.0238 -15.0113 
vt 28.0238 -14.9887 
vt 27.9762 -14.9887 
vt 27.9787 -14.9086 
vt 28.0213 -15.0741 
vt 28.0213 -14.9086 
vt 27.9787 -15.0741 
vt 28.0238 -15.0804 
vt 27.9762 -15.0804 
vt 28.0213 -15.0741 
vt 27.9762 -15.0914 
vt 27.9762 -15.0804 
vt 28.0238 -15.0914 
vt 46.0134 -47.075 
vt 46.0134 -46.905 
vt 45.9866 -46.905 
vt 45.9866 -47.075 
vt 46.0149 -47.081 
vt 45.9851 -47.081 
vt 45.9851 -47.095 
vt 46.0149 -47.095 
vt 46.0254 -47.0134 
vt 45.9746 -46.9866 
vt 45.9746 -47.0134 
vt 46.0254 -46.9866 
vt 45.9746 -46.905 
vt 45.9746 -47.075 
vt 46.0254 -47.075 
vt 46.0254 -46.905 
vt 46.0282 -47.081 
vt 45.9718 -47.081 
vt 45.9718 -47.095 
vt 46.0282 -47.095 
vt 45.9866 -46.905 
vt 45.9866 -47.075 
vt 46.0134 -47.075 
vt 46.0134 -46.905 
vt 45.9851 -47.081 
vt 46.0149 -47.081 
vt 45.9851 -47.095 
vt 46.0149 -47.095 
vt 45.9718 -47.0149 
vt 46.0282 -47.0149 
vt 46.0282 -46.9851 
vt 45.9718 -46.9851 
vt 45.9746 -46.905 
vt 46.0254 -47.075 
vt 46.0254 -46.905 
vt 45.9746 -47.075 
vt 45.9718 -47.081 
vt 46.0282 -47.081 
vt 45.9718 -47.095 
vt 46.0282 -47.095 
vt 48 -31.075 
vt 48 -31.0606 
vt 47.9974 -31.075 
vt 48 -31.0606 
vt 48.0026 -31.075 
vt 48.0026 -31.0597 
vt 48 -31.075 
vt 47.9974 -31.0597 
vt 47.9974 -31.075 
vt 48 -31.0606 
vt 48 -31.0507 
vt 48 -31.0317 
vt 47.9974 -31.0498 
vt 47.9974 -31.0315 
vt 48 -31.0166 
vt 48.0026 -31.0315 
vt 48.0026 -31.0164 
vt 48.0026 -31.0164 
vt 48.0026 -31.0002 
vt 48 -30.9891 
vt 48 -30.9992 
vt 48.0026 -30.9905 
vt 48.0026 -30.9753 
vt 48.0026 -30.9641 
vt 48 -30.9743 
vt 47.9974 -30.9641 
vt 47.9974 -30.9753 
vt 47.9974 -31.0315 
vt 48 -31.0166 
vt 47.9974 -31.0164 
vt 48 -31.0317 
vt 48.0026 -31.0315 
vt 48.0026 -31.0498 
vt 48 -31.0507 
vt 47.9974 -31.0002 
vt 47.9974 -31.0164 
vt 48 -30.9992 
vt 48.0026 -31.0002 
vt 47.9974 -30.9905 
vt 48 -30.9891 
vt 48.0026 -30.9905 
vt 48 -30.964 
vt 48 -30.9743 
vt 48.0026 -30.9641 
vt 48.0026 -30.9444 
vt 47.9974 -30.9641 
vt 48 -30.9444 
vt 47.9974 -30.9444 
vt 48.0026 -30.9093 
vt 48 -30.9093 
vt 48.0026 -30.9444 
vt 47.9974 -30.9444 
vt 47.9974 -30.9093 
vt 47.9974 -31.075 
vt 47.9974 -31.0907 
vt 48 -31.075 
vt 48 -31.0907 
vt 48.0026 -31.075 
vt 48.0026 -31.0907 
vt 48.0189 -31.0026 
vt 48.0137 -31.0026 
vt 48.0163 -31.0037 
vt 48.02 -31 
vt 48.0126 -31 
vt 48.0137 -30.9974 
vt 48.0189 -30.9974 
vt 48.0163 -30.9963 
vt 47.9905 -31.0026 
vt 47.9987 -31 
vt 47.99 -31 
vt 47.9905 -30.9974 
vt 47.9992 -31.0026 
vt 48.0086 -31 
vt 48.0094 -30.9974 
vt 47.9992 -30.9974 
vt 47.9992 -30.9974 
vt 47.9905 -30.9974 
vt 47.9987 -31 
vt 48.0086 -31 
vt 47.9992 -31.0026 
vt 48.0094 -31.0026 
vt 47.9923 -31.0026 
vt 48.0049 -31.0026 
vt 47.993 -31 
vt 48.0055 -31 
vt 48.0049 -30.9974 
vt 47.9923 -30.9974 
vt 47.9864 -31.075 
vt 47.9967 -31.0576 
vt 47.9837 -31.075 
vt 47.9967 -31.0576 
vt 47.9864 -31.075 
vt 47.9983 -31.0597 
vt 47.9811 -30.9444 
vt 47.9837 -30.9093 
vt 47.9811 -30.9093 
vt 47.9837 -30.9444 
vt 48.0149 -31.0024 
vt 48.0207 -31.0164 
vt 48.0169 -31.0002 
vt 48.0186 -31.0315 
vt 48.0207 -31.0164 
vt 48.016 -31.031 
vt 47.9997 -30.9866 
vt 48.0095 -30.9905 
vt 48.0008 -30.9833 
vt 47.9887 -30.9778 
vt 47.9906 -30.9753 
vt 47.9837 -30.9642 
vt 47.9863 -30.9641 
vt 48.0093 -31.0477 
vt 47.9967 -31.0576 
vt 48.0109 -31.0498 
vt 47.9983 -31.0597 
vt 48.0186 -31.0315 
vt 48.016 -31.031 
vt 48.0207 -31.0164 
vt 48.0182 -31.016 
vt 48.0207 -31.0164 
vt 48.0149 -31.0024 
vt 48.0182 -31.016 
vt 48.0169 -31.0002 
vt 48.0083 -30.9937 
vt 48.0095 -30.9905 
vt 47.9997 -30.9866 
vt 47.9837 -30.9444 
vt 47.9863 -30.9641 
vt 47.9863 -30.9444 
vt 47.9837 -30.9642 
vt 47.9863 -30.9093 
vt 47.9837 -30.9444 
vt 47.9863 -30.9444 
vt 47.9837 -30.9093 
vt 47.9837 -30.9642 
vt 47.9811 -30.9444 
vt 47.9811 -30.9644 
vt 47.9837 -30.9444 
vt 47.9868 -30.9803 
vt 47.9997 -30.9866 
vt 47.9887 -30.9778 
vt 47.9985 -30.9899 
vt 48.0083 -30.9937 
vt 48.0149 -31.0024 
vt 48.0072 -30.997 
vt 48.0128 -31.0047 
vt 47.9951 -31.0556 
vt 47.9837 -31.075 
vt 47.9967 -31.0576 
vt 47.9837 -31.075 
vt 47.9951 -31.0556 
vt 47.9811 -31.075 
vt 47.9811 -30.9644 
vt 47.9887 -30.9778 
vt 47.9837 -30.9642 
vt 47.9868 -30.9803 
vt 48.0083 -30.9937 
vt 47.9985 -30.9899 
vt 48.0072 -30.997 
vt 48.0149 -31.0024 
vt 48.0128 -31.0047 
vt 48.0182 -31.016 
vt 48.0156 -31.0155 
vt 48.016 -31.031 
vt 48.0182 -31.016 
vt 48.0134 -31.0306 
vt 48.0093 -31.0477 
vt 48.0077 -31.0457 
vt 47.9951 -31.0556 
vt 47.9967 -31.0576 
vt 48.0077 -31.0457 
vt 48.016 -31.031 
vt 48.0134 -31.0306 
vt 48.0182 -31.016 
vt 48.0156 -31.0155 
vt 47.9837 -31.075 
vt 47.9845 -31.0907 
vt 47.9864 -31.075 
vt 47.9819 -31.0907 
vt 47.9819 -31.0907 
vt 47.9811 -31.075 
vt 47.9793 -31.0907 
vt 47.9837 -31.075 
vt 47.9974 -30.9803 
vt 48 -30.9645 
vt 47.9974 -30.9644 
vt 48 -30.9444 
vt 48 -30.9093 
vt 47.9974 -30.9444 
vt 47.9974 -30.9093 
vt 48.0026 -30.9093 
vt 48 -30.9645 
vt 47.9974 -30.9803 
vt 48 -30.9814 
vt 48.0026 -30.9803 
vt 47.9974 -30.9444 
vt 47.9974 -30.9644 
vt 48 -30.9444 
vt 48.0026 -30.9444 
vt 48.0026 -30.9093 
vt 48.0026 -30.9644 
vt 48.0026 -30.9444 
vt 48 -30.9983 
vt 48.0026 -31.0047 
vt 48.0026 -30.997 
vt 48 -31.0057 
vt 48.0026 -31.0155 
vt 47.9974 -31.0155 
vt 47.9974 -31.0047 
vt 47.9974 -30.997 
vt 48.0026 -31.0047 
vt 48 -30.9983 
vt 48 -31.0057 
vt 48.0026 -31.0155 
vt 48 -31.0153 
vt 47.9974 -31.0047 
vt 47.9974 -31.0155 
vt 48 -31.0448 
vt 47.9974 -31.0306 
vt 47.9974 -31.0457 
vt 48 -31.0304 
vt 47.9974 -31.0155 
vt 48 -31.0153 
vt 48.0026 -31.0155 
vt 48.0026 -31.0306 
vt 48.0026 -31.0457 
vt 48 -31.075 
vt 48.0026 -31.0556 
vt 48 -31.0547 
vt 48 -31.075 
vt 47.9974 -31.0556 
vt 47.9974 -31.075 
vt 48 -31.0547 
vt 48.0026 -31.0556 
vt 48 -31.075 
vt 48.0026 -31.075 
vt 47.9974 -31.0306 
vt 48 -31.0448 
vt 48 -31.0304 
vt 47.9974 -31.0907 
vt 48 -31.075 
vt 47.9974 -31.075 
vt 48 -31.0907 
vt 48.0026 -31.075 
vt 48.0026 -31.0907 
vt 47.9819 -30.9963 
vt 47.9845 -31.0026 
vt 47.9845 -30.9974 
vt 47.9856 -31 
vt 47.9819 -31.0037 
vt 47.9793 -30.9974 
vt 47.9793 -31.0026 
vt 47.9782 -31 
vt 48.0109 -30.9974 
vt 47.999 -31 
vt 48.0115 -31 
vt 47.9983 -30.9974 
vt 48.0109 -31.0026 
vt 48.0109 -31.0026 
vt 47.999 -31 
vt 47.9983 -31.0026 
vt 47.9868 -31.0026 
vt 47.9981 -31 
vt 47.9861 -31 
vt 47.9985 -31.0026 
vt 47.9985 -30.9974 
vt 48.0067 -31 
vt 48.0072 -30.9974 
vt 47.9981 -31 
vt 47.9868 -30.9974 
vt 47.9861 -31 
vt 47.9985 -30.9974 
vt 48.0067 -31 
vt 47.9985 -31.0026 
vt 48.0072 -31.0026 
vt 48.0163 -31.075 
vt 48.0033 -31.0576 
vt 48.0136 -31.075 
vt 48.0017 -31.0597 
vt 48.0189 -30.9444 
vt 48.0163 -30.9642 
vt 48.0189 -30.9644 
vt 48.0163 -30.9093 
vt 48.0163 -30.9444 
vt 48.0189 -30.9093 
vt 47.9851 -31.0024 
vt 47.9917 -30.9937 
vt 47.9831 -31.0002 
vt 47.9793 -31.0164 
vt 47.9818 -31.016 
vt 48.0189 -30.9093 
vt 48.0163 -30.9444 
vt 48.0189 -30.9444 
vt 48.0033 -31.0576 
vt 47.9891 -31.0498 
vt 48.0017 -31.0597 
vt 47.9907 -31.0477 
vt 47.9814 -31.0315 
vt 47.984 -31.031 
vt 47.9793 -31.0164 
vt 47.9818 -31.016 
vt 47.9905 -30.9905 
vt 47.9831 -31.0002 
vt 47.9917 -30.9937 
vt 48.0003 -30.9866 
vt 48.0113 -30.9778 
vt 47.9992 -30.9833 
vt 48.0094 -30.9753 
vt 48.0163 -30.9642 
vt 48.0163 -30.9444 
vt 48.0137 -30.9641 
vt 48.0137 -30.9444 
vt 47.9907 -31.0477 
vt 47.9814 -31.0315 
vt 47.9891 -31.0498 
vt 48.0003 -30.9866 
vt 47.9992 -30.9833 
vt 47.9905 -30.9905 
vt 48.0094 -30.9753 
vt 48.0163 -30.9642 
vt 48.0137 -30.9641 
vt 48.0137 -30.9093 
vt 48.0137 -30.9444 
vt 48.0163 -30.9093 
vt 48.0163 -30.9444 
vt 48.0015 -30.9899 
vt 48.0132 -30.9803 
vt 48.0003 -30.9866 
vt 48.0113 -30.9778 
vt 48.0189 -30.9644 
vt 48.0163 -30.9642 
vt 48.0163 -30.9444 
vt 48.0189 -30.9444 
vt 47.9872 -31.0047 
vt 47.9928 -30.997 
vt 47.9851 -31.0024 
vt 47.9917 -30.9937 
vt 47.9818 -31.016 
vt 48.0189 -31.075 
vt 48.0049 -31.0556 
vt 48.0163 -31.075 
vt 48.0033 -31.0576 
vt 47.9928 -30.997 
vt 48.0015 -30.9899 
vt 47.9917 -30.9937 
vt 48.0003 -30.9866 
vt 47.9872 -31.0047 
vt 47.9818 -31.016 
vt 47.9844 -31.0155 
vt 47.9866 -31.0306 
vt 47.9818 -31.016 
vt 47.984 -31.031 
vt 47.9923 -31.0457 
vt 47.9907 -31.0477 
vt 48.0049 -31.0556 
vt 48.0033 -31.0576 
vt 47.9844 -31.0155 
vt 47.984 -31.031 
vt 47.9923 -31.0457 
vt 47.9866 -31.0306 
vt 48.0136 -31.075 
vt 48.0155 -31.0907 
vt 48.0163 -31.075 
vt 48.0181 -31.0907 
vt 48.0189 -31.075 
vt 48.0207 -31.0907 
vn -0.9843 0.1968 -0.0000
vn -1.0000 0.0000 -0.0000
vn -1.0000 0.0000 -0.0000
vn -0.9843 0.1968 -0.0000
vn -0.9843 0.1968 -0.0000
vn -0.9843 0.1732 -0.0000
vn -0.9843 0.1732 -0.0000
vn -0.9843 0.1732 -0.0000
vn -1.0000 0.0000 -0.0000
vn -1.0000 0.0000 -0.0000
vn 0.0000 1.0000 -0.0000
vn 0.0000 1.0000 -0.0000
vn 0.0000 1.0000 -0.0000
vn 0.0000 1.0000 -0.0000
vn 0.0000 0.0000 -1.0000
vn 0.0000 0.1102 -0.9921
vn 0.0000 0.1102 -0.9921
vn 0.0000 0.0000 -1.0000
vn 0.0000 0.0866 -1.0000
vn 0.0000 0.1102 -0.9921
vn 0.0000 0.0866 -1.0000
vn 0.0000 0.0000 -1.0000
vn 0.0000 0.0866 -1.0000
vn 0.0000 0.0000 -1.0000
vn 1.0000 0.0000 -0.0000
vn 0.9843 0.1968 -0.0000
vn 0.9843 0.1968 -0.0000
vn 1.0000 0.0000 -0.0000
vn 0.9843 0.1732 -0.0000
vn 0.9843 0.1732 -0.0000
vn 0.9843 0.1968 -0.0000
vn 1.0000 0.0000 -0.0000
vn 0.9843 0.1732 -0.0000
vn 1.0000 0.0000 -0.0000
vn 0.0000 -1.0000 -0.0000
vn 0.0000 -1.0000 -0.0000
vn 0.0000 -1.0000 -0.0000
vn 0.0000 -1.0000 -0.0000
vn 0.0000 0.0000 1.0000
vn 0.0000 0.1102 0.9921
vn 0.0000 0.0000 1.0000
vn 0.0000 0.1102 0.9921
vn 0.0000 0.0866 1.0000
vn 0.0000 0.0866 1.0000
vn 0.0000 0.1102 0.9921
vn 0.0000 0.0000 1.0000
vn 0.0000 0.0866 1.0000
vn 0.0000 0.0000 1.0000
vn -0.9764 0.2283 -0.0000
vn -1.0000 0.0000 -0.0000
vn -1.0000 0.0000 -0.0000
vn -0.9764 0.2283 -0.0000
vn -0.9764 0.2205 -0.0000
vn -0.9764 0.2205 -0.0000
vn -1.0000 0.0000 -0.0000
vn -1.0000 0.0000 -0.0000
vn 0.0000 1.0000 -0.0000
vn 0.0000 1.0000 -0.0000
vn 0.0000 1.0000 -0.0000
vn 0.0000 1.0000 -0.0000
vn 0.0000 0.0000 -1.0000
vn 0.0000 0.1339 -0.9921
vn 0.0000 0.1339 -0.9921
vn 0.0000 0.0000 -1.0000
vn 0.0000 0.1102 -0.9921
vn 0.0000 0.1102 -0.9921
vn 0.0000 0.0000 -1.0000
vn 0.0000 0.0000 -1.0000
vn 1.0000 0.0000 -0.0000
vn 0.9764 0.2283 -0.0000
vn 0.9764 0.2283 -0.0000
vn 1.0000 0.0000 -0.0000
vn 0.9764 0.2205 -0.0000
vn 0.9764 0.2205 -0.0000
vn 1.0000 0.0000 -0.0000
vn 1.0000 0.0000 -0.0000
vn 0.0000 -1.0000 -0.0000
vn 0.0000 -1.0000 -0.0000
vn 0.0000 -1.0000 -0.0000
vn 0.0000 -1.0000 -0.0000
vn 0.0000 0.0000 1.0000
vn 0.0000 0.1339 0.9921
vn 0.0000 0.0000 1.0000
vn 0.0000 0.1339 0.9921
vn 0.0000 0.1102 0.9921
vn 0.0000 0.1102 0.9921
vn 0.0000 0.0000 1.0000
vn 0.0000 0.0000 1.0000
vn -0.9213 -0.3937 -0.0000
vn -0.7087 -0.7087 -0.0000
vn -0.6220 -0.2520 -0.7402
vn -0.7087 -0.7087 -0.0000
vn -0.6220 -0.2520 0.7402
vn -0.4882 -0.4803 0.7244
vn -0.9213 -0.3937 -0.0000
vn -0.4882 -0.4803 -0.7244
vn -0.6220 -0.2520 -0.7402
vn -0.7087 -0.7087 -0.0000
vn -0.8110 -0.5906 -0.0000
vn -0.9685 -0.2598 -0.0000
vn -0.5827 -0.4252 -0.6929
vn -0.7008 -0.1968 -0.6850
vn -1.0000 0.0394 -0.0000
vn -0.7008 -0.1968 0.6850
vn -0.7402 0.0315 0.6772
vn -0.7402 0.0315 0.6772
vn -0.6535 0.2992 0.7008
vn -0.7165 0.6929 -0.0000
vn -0.9055 0.4173 -0.0000
vn -0.4724 0.4488 0.7559
vn -0.5118 0.3543 0.7874
vn -0.6614 0.1181 0.7402
vn -0.8189 0.5748 -0.0000
vn -0.6614 0.1181 -0.7402
vn -0.5118 0.3543 -0.7874
vn -0.7008 -0.1968 -0.6850
vn -1.0000 0.0394 -0.0000
vn -0.7402 0.0315 -0.6772
vn -0.9685 -0.2598 -0.0000
vn -0.7008 -0.1968 0.6850
vn -0.5827 -0.4252 0.6929
vn -0.8110 -0.5906 -0.0000
vn -0.6535 0.2992 -0.7008
vn -0.7402 0.0315 -0.6772
vn -0.9055 0.4173 -0.0000
vn -0.6535 0.2992 0.7008
vn -0.4724 0.4488 -0.7559
vn -0.7165 0.6929 -0.0000
vn -0.4724 0.4488 0.7559
vn -0.9843 0.1890 -0.0000
vn -0.8189 0.5748 -0.0000
vn -0.6614 0.1181 0.7402
vn -0.7087 0.0000 0.7087
vn -0.6614 0.1181 -0.7402
vn -1.0000 0.0000 -0.0000
vn -0.7087 0.0000 -0.7087
vn -0.7087 0.0000 0.7087
vn -1.0000 0.0000 -0.0000
vn -0.7087 0.0000 0.7087
vn -0.7087 0.0000 -0.7087
vn -0.7087 0.0000 -0.7087
vn -0.6220 -0.2520 -0.7402
vn -0.6850 -0.0787 -0.7244
vn -0.9213 -0.3937 -0.0000
vn -0.9921 -0.1181 -0.0000
vn -0.6220 -0.2520 0.7402
vn -0.6850 -0.0787 0.7244
vn 0.0000 1.0000 -0.0000
vn 0.0000 1.0000 -0.0000
vn 0.0000 1.0000 -0.0000
vn 0.0000 1.0000 -0.0000
vn 0.0000 1.0000 -0.0000
vn 0.0000 1.0000 -0.0000
vn 0.0000 1.0000 -0.0000
vn 0.0000 1.0000 -0.0000
vn -0.4724 0.4488 0.7559
vn -0.6220 0.7795 -0.0000
vn -0.7165 0.6929 -0.0000
vn -0.4724 0.4488 -0.7559
vn -0.3937 0.4882 0.7795
vn -0.8189 0.5748 -0.0000
vn -0.5118 0.3543 -0.7874
vn -0.3937 0.4882 -0.7795
vn -0.3937 0.4882 -0.7795
vn -0.4724 0.4488 -0.7559
vn -0.6220 0.7795 -0.0000
vn -0.8189 0.5748 -0.0000
vn -0.3937 0.4882 0.7795
vn -0.5118 0.3543 0.7874
vn 0.5354 0.3780 0.7480
vn 0.5197 0.4882 0.7008
vn 0.8189 0.5748 -0.0000
vn 0.7323 0.6772 -0.0000
vn 0.5197 0.4882 -0.7008
vn 0.5354 0.3780 -0.7480
vn -0.6220 -0.2520 -0.7402
vn 0.0157 0.0236 -1.0000
vn 0.0630 0.0630 -1.0000
vn 0.0157 0.0236 -1.0000
vn -0.6220 -0.2520 -0.7402
vn -0.4882 -0.4803 -0.7244
vn 0.7087 0.0000 -0.7087
vn 0.0000 0.0000 -1.0000
vn 0.7087 0.0000 -0.7087
vn 0.0000 0.0000 -1.0000
vn -0.0551 0.0157 -1.0000
vn -0.7402 0.0315 -0.6772
vn -0.6535 0.2992 -0.7008
vn -0.7008 -0.1968 -0.6850
vn -0.7402 0.0315 -0.6772
vn -0.0394 -0.0157 -1.0000
vn 0.0000 0.0000 -1.0000
vn -0.4724 0.4488 -0.7559
vn -0.3937 0.4882 -0.7795
vn 0.0551 -0.0315 -1.0000
vn -0.5118 0.3543 -0.7874
vn 0.0551 -0.0157 -1.0000
vn -0.6614 0.1181 -0.7402
vn -0.0472 -0.0394 -1.0000
vn 0.0157 0.0236 -1.0000
vn -0.5827 -0.4252 -0.6929
vn -0.4882 -0.4803 -0.7244
vn -0.7008 -0.1968 -0.6850
vn -0.0394 -0.0157 -1.0000
vn -0.7402 0.0315 -0.6772
vn -0.0630 0.0079 -1.0000
vn -0.7402 0.0315 -0.6772
vn -0.0551 0.0157 -1.0000
vn -0.0630 0.0079 -1.0000
vn -0.6535 0.2992 -0.7008
vn -0.0236 0.0157 -1.0000
vn -0.4724 0.4488 -0.7559
vn 0.0000 0.0000 -1.0000
vn 0.0000 0.0000 -1.0000
vn -0.6614 0.1181 -0.7402
vn -0.7087 0.0000 -0.7087
vn 0.0551 -0.0157 -1.0000
vn -0.7087 0.0000 -0.7087
vn 0.0000 0.0000 -1.0000
vn -0.7087 0.0000 -0.7087
vn 0.0000 0.0000 -1.0000
vn 0.0551 -0.0157 -1.0000
vn 0.7087 0.0000 -0.7087
vn 0.7165 -0.1260 -0.6850
vn 0.0000 0.0000 -1.0000
vn 0.5748 -0.3858 -0.7165
vn 0.0000 0.0000 -1.0000
vn 0.0551 -0.0315 -1.0000
vn 0.3937 -0.4882 -0.7795
vn -0.0236 0.0157 -1.0000
vn -0.0551 0.0157 -1.0000
vn 0.4567 -0.4252 -0.7795
vn 0.5984 -0.2756 -0.7559
vn 0.5197 0.4882 -0.7008
vn 0.0630 0.0630 -1.0000
vn 0.0157 0.0236 -1.0000
vn 0.0630 0.0630 -1.0000
vn 0.5197 0.4882 -0.7008
vn 0.6929 0.2598 -0.6772
vn 0.7165 -0.1260 -0.6850
vn 0.0551 -0.0315 -1.0000
vn 0.0551 -0.0157 -1.0000
vn 0.5748 -0.3858 -0.7165
vn -0.0236 0.0157 -1.0000
vn 0.3937 -0.4882 -0.7795
vn 0.4567 -0.4252 -0.7795
vn -0.0551 0.0157 -1.0000
vn 0.5984 -0.2756 -0.7559
vn -0.0630 0.0079 -1.0000
vn 0.6772 -0.0394 -0.7402
vn -0.0394 -0.0157 -1.0000
vn -0.0630 0.0079 -1.0000
vn 0.6693 0.1732 -0.7165
vn -0.0472 -0.0394 -1.0000
vn 0.5354 0.3780 -0.7480
vn 0.5197 0.4882 -0.7008
vn 0.0157 0.0236 -1.0000
vn 0.5354 0.3780 -0.7480
vn -0.0394 -0.0157 -1.0000
vn 0.6693 0.1732 -0.7165
vn -0.0630 0.0079 -1.0000
vn 0.6772 -0.0394 -0.7402
vn 0.0630 0.0630 -1.0000
vn -0.6850 -0.0787 -0.7244
vn -0.6220 -0.2520 -0.7402
vn 0.0394 0.0079 -1.0000
vn 0.0394 0.0079 -1.0000
vn 0.6929 0.2598 -0.6772
vn 0.7244 0.0866 -0.6850
vn 0.0630 0.0630 -1.0000
vn 0.5748 -0.3858 0.7165
vn 0.9843 -0.1575 -0.0000
vn 0.7165 -0.1260 0.6850
vn 1.0000 0.0000 -0.0000
vn 1.0000 0.0000 -0.0000
vn 0.7087 0.0000 0.7087
vn 0.7087 0.0000 0.7087
vn 0.7087 0.0000 -0.7087
vn 0.9843 -0.1575 -0.0000
vn 0.5748 -0.3858 0.7165
vn 0.8346 -0.5591 -0.0000
vn 0.5748 -0.3858 -0.7165
vn 0.7087 0.0000 0.7087
vn 0.7165 -0.1260 0.6850
vn 1.0000 0.0000 -0.0000
vn 0.7087 0.0000 -0.7087
vn 0.7087 0.0000 -0.7087
vn 0.7165 -0.1260 -0.6850
vn 0.7087 0.0000 -0.7087
vn 0.7323 -0.6772 -0.0000
vn 0.5984 -0.2756 -0.7559
vn 0.4567 -0.4252 -0.7795
vn 0.9134 -0.4094 -0.0000
vn 0.6772 -0.0394 -0.7402
vn 0.6772 -0.0394 0.7402
vn 0.5984 -0.2756 0.7559
vn 0.4567 -0.4252 0.7795
vn 0.5984 -0.2756 -0.7559
vn 0.7323 -0.6772 -0.0000
vn 0.9134 -0.4094 -0.0000
vn 0.6772 -0.0394 -0.7402
vn 1.0000 -0.0630 -0.0000
vn 0.5984 -0.2756 0.7559
vn 0.6772 -0.0394 0.7402
vn 0.8189 0.5748 -0.0000
vn 0.6693 0.1732 0.7165
vn 0.5354 0.3780 0.7480
vn 0.9685 0.2520 -0.0000
vn 0.6772 -0.0394 0.7402
vn 1.0000 -0.0630 -0.0000
vn 0.6772 -0.0394 -0.7402
vn 0.6693 0.1732 -0.7165
vn 0.5354 0.3780 -0.7480
vn 0.9449 0.3228 -0.0000
vn 0.5197 0.4882 -0.7008
vn 0.7323 0.6772 -0.0000
vn 0.9449 0.3228 -0.0000
vn 0.5197 0.4882 0.7008
vn 0.6929 0.2598 0.6772
vn 0.7323 0.6772 -0.0000
vn 0.5197 0.4882 -0.7008
vn 0.9449 0.3228 -0.0000
vn 0.6929 0.2598 -0.6772
vn 0.6693 0.1732 0.7165
vn 0.8189 0.5748 -0.0000
vn 0.9685 0.2520 -0.0000
vn 0.7244 0.0866 0.6850
vn 0.9449 0.3228 -0.0000
vn 0.6929 0.2598 0.6772
vn 0.9921 0.1181 -0.0000
vn 0.6929 0.2598 -0.6772
vn 0.7244 0.0866 -0.6850
vn 0.0000 -1.0000 -0.0000
vn 0.0000 -1.0000 -0.0000
vn 0.0000 -1.0000 -0.0000
vn 0.0000 -1.0000 -0.0000
vn 0.0000 -1.0000 -0.0000
vn 0.0000 -1.0000 -0.0000
vn 0.0000 -1.0000 -0.0000
vn 0.0000 -1.0000 -0.0000
vn -0.5827 -0.4252 -0.6929
vn -0.7087 -0.7087 -0.0000
vn -0.8110 -0.5906 -0.0000
vn -0.4882 -0.4803 -0.7244
vn -0.5827 -0.4252 0.6929
vn -0.5827 -0.4252 0.6929
vn -0.7087 -0.7087 -0.0000
vn -0.4882 -0.4803 0.7244
vn 0.5748 -0.3858 0.7165
vn 0.6378 -0.7717 -0.0000
vn 0.8346 -0.5591 -0.0000
vn 0.3937 -0.4882 0.7795
vn 0.3937 -0.4882 -0.7795
vn 0.7323 -0.6772 -0.0000
vn 0.4567 -0.4252 -0.7795
vn 0.6378 -0.7717 -0.0000
vn 0.5748 -0.3858 -0.7165
vn 0.8346 -0.5591 -0.0000
vn 0.3937 -0.4882 -0.7795
vn 0.7323 -0.6772 -0.0000
vn 0.3937 -0.4882 0.7795
vn 0.4567 -0.4252 0.7795
vn 0.0630 0.0630 1.0000
vn 0.0157 0.0236 1.0000
vn -0.6220 -0.2520 0.7402
vn -0.4882 -0.4803 0.7244
vn 0.7087 0.0000 0.7087
vn 0.0551 -0.0157 1.0000
vn 0.7165 -0.1260 0.6850
vn 0.0000 0.0000 1.0000
vn 0.0000 0.0000 1.0000
vn 0.7087 0.0000 0.7087
vn -0.0551 0.0157 1.0000
vn -0.0236 0.0157 1.0000
vn -0.6535 0.2992 0.7008
vn -0.7402 0.0315 0.6772
vn -0.0630 0.0079 1.0000
vn 0.7087 0.0000 0.7087
vn 0.0000 0.0000 1.0000
vn 0.7087 0.0000 0.7087
vn 0.0157 0.0236 1.0000
vn -0.5827 -0.4252 0.6929
vn -0.4882 -0.4803 0.7244
vn -0.0472 -0.0394 1.0000
vn -0.7008 -0.1968 0.6850
vn -0.0394 -0.0157 1.0000
vn -0.7402 0.0315 0.6772
vn -0.0630 0.0079 1.0000
vn -0.4724 0.4488 0.7559
vn -0.6535 0.2992 0.7008
vn -0.0236 0.0157 1.0000
vn 0.0000 0.0000 1.0000
vn 0.0551 -0.0315 1.0000
vn -0.3937 0.4882 0.7795
vn -0.5118 0.3543 0.7874
vn 0.0551 -0.0157 1.0000
vn 0.0000 0.0000 1.0000
vn -0.6614 0.1181 0.7402
vn -0.7087 0.0000 0.7087
vn -0.0472 -0.0394 1.0000
vn -0.7008 -0.1968 0.6850
vn -0.5827 -0.4252 0.6929
vn 0.0000 0.0000 1.0000
vn -0.3937 0.4882 0.7795
vn -0.4724 0.4488 0.7559
vn -0.5118 0.3543 0.7874
vn 0.0551 -0.0157 1.0000
vn -0.6614 0.1181 0.7402
vn -0.7087 0.0000 0.7087
vn -0.7087 0.0000 0.7087
vn 0.0000 0.0000 1.0000
vn 0.0000 0.0000 1.0000
vn 0.3937 -0.4882 0.7795
vn 0.5748 -0.3858 0.7165
vn 0.0000 0.0000 1.0000
vn 0.0551 -0.0315 1.0000
vn 0.7165 -0.1260 0.6850
vn 0.0551 -0.0157 1.0000
vn 0.0000 0.0000 1.0000
vn 0.7087 0.0000 0.7087
vn 0.5984 -0.2756 0.7559
vn 0.4567 -0.4252 0.7795
vn -0.0551 0.0157 1.0000
vn -0.0236 0.0157 1.0000
vn -0.0630 0.0079 1.0000
vn 0.6929 0.2598 0.6772
vn 0.5197 0.4882 0.7008
vn 0.0630 0.0630 1.0000
vn 0.0157 0.0236 1.0000
vn 0.4567 -0.4252 0.7795
vn 0.3937 -0.4882 0.7795
vn -0.0236 0.0157 1.0000
vn 0.0000 0.0000 1.0000
vn 0.5984 -0.2756 0.7559
vn -0.0630 0.0079 1.0000
vn 0.6772 -0.0394 0.7402
vn 0.6693 0.1732 0.7165
vn -0.0630 0.0079 1.0000
vn -0.0394 -0.0157 1.0000
vn 0.5354 0.3780 0.7480
vn -0.0472 -0.0394 1.0000
vn 0.5197 0.4882 0.7008
vn 0.0157 0.0236 1.0000
vn 0.6772 -0.0394 0.7402
vn -0.0394 -0.0157 1.0000
vn 0.5354 0.3780 0.7480
vn 0.6693 0.1732 0.7165
vn -0.6220 -0.2520 0.7402
vn -0.6850 -0.0787 0.7244
vn 0.0630 0.0630 1.0000
vn 0.0394 0.0079 1.0000
vn 0.6929 0.2598 0.6772
vn 0.7244 0.0866 0.6850
usemtl Meshpart8Mtl
f 1/1/1 2/2/2 3/3/3
f 1/1/1 3/3/3 4/4/4
f 1/1/1 5/5/5 6/6/6
f 6/6/6 7/7/7 1/1/1
f 8/8/8 6/6/6 9/9/9
f 9/9/9 10/10/10 8/8/8
f 11/11/11 12/12/12 13/13/13
f 11/11/11 13/13/13 14/14/14
f 15/15/15 16/16/16 17/17/17
f 17/17/17 18/18/18 15/15/15
f 19/19/19 17/17/17 20/20/20
f 19/19/19 21/21/21 17/17/17
f 22/22/22 23/23/23 19/19/19
f 22/22/22 24/24/24 23/23/23
f 25/25/25 26/26/26 27/27/27
f 25/25/25 27/27/27 28/28/28
f 27/27/27 29/29/29 30/30/30
f 29/29/29 27/27/27 31/31/31
f 32/32/32 33/33/33 29/29/29
f 33/33/33 32/32/32 34/34/34
f 35/35/35 36/36/36 37/37/37
f 35/35/35 37/37/37 38/38/38
f 39/39/39 40/40/40 41/41/41
f 40/40/40 39/39/39 42/42/42
f 43/43/43 42/42/42 44/44/44
f 42/42/42 43/43/43 45/45/45
f 46/46/46 43/43/43 47/47/47
f 43/43/43 46/46/46 48/48/48
usemtl Meshpart9Mtl
f 49/49/49 50/50/50 51/51/51
f 49/49/49 51/51/51 52/52/52
f 52/52/52 53/53/53 49/49/49
f 53/53/53 52/52/52 54/54/54
f 53/53/53 54/54/54 55/55/55
f 55/55/55 56/56/56 53/53/53
f 57/57/57 58/58/58 59/59/59
f 58/58/58 57/57/57 60/60/60
f 61/61/61 62/62/62 63/63/63
f 63/63/63 64/64/64 61/61/61
f 62/62/62 65/65/65 63/63/63
f 65/65/65 62/62/62 66/66/66
f 67/67/67 65/65/65 66/66/66
f 67/67/67 68/68/68 65/65/65
f 69/69/69 70/70/70 71/71/71
f 69/69/69 71/71/71 72/72/72
f 73/73/73 71/71/71 70/70/70
f 71/71/71 73/73/73 74/74/74
f 75/75/75 74/74/74 73/73/73
f 74/74/74 75/75/75 76/76/76
f 77/77/77 78/78/78 79/79/79
f 77/77/77 79/79/79 80/80/80
f 81/81/81 82/82/82 83/83/83
f 82/82/82 81/81/81 84/84/84
f 82/82/82 84/84/84 85/85/85
f 82/82/82 85/85/85 86/86/86
f 86/86/86 85/85/85 87/87/87
f 86/86/86 87/87/87 88/88/88
usemtl Meshpart10Mtl
f 89/89/89 90/90/90 91/91/91
f 92/92/92 93/93/93 94/94/94
f 93/93/93 92/92/92 95/95/95
f 96/96/96 97/97/97 98/98/98
f 99/99/99 100/100/100 101/101/101
f 102/102/102 101/101/101 100/100/100
f 103/103/103 104/104/104 105/105/105
f 106/106/106 107/107/107 103/103/103
f 108/108/108 109/109/109 110/110/110
f 111/111/111 112/112/112 113/113/113
f 113/113/113 114/114/114 115/115/115
f 116/116/116 117/117/117 118/118/118
f 117/117/117 116/116/116 119/119/119
f 120/120/120 117/117/117 119/119/119
f 119/119/119 121/121/121 120/120/120
f 121/121/121 119/119/119 122/122/122
f 117/117/117 123/123/123 124/124/124
f 123/123/123 117/117/117 125/125/125
f 125/125/125 117/117/117 126/126/126
f 125/125/125 127/127/127 123/123/123
f 127/127/127 125/125/125 128/128/128
f 126/126/126 129/129/129 125/125/125
f 130/130/130 131/131/131 132/132/132
f 133/133/133 130/130/130 132/132/132
f 134/134/134 131/131/131 130/130/130
f 130/130/130 133/133/133 135/135/135
f 130/130/130 136/136/136 134/134/134
f 136/136/136 130/130/130 135/135/135
f 135/135/135 137/137/137 138/138/138
f 137/137/137 135/135/135 139/139/139
f 138/138/138 140/140/140 135/135/135
f 140/140/140 138/138/138 141/141/141
f 142/142/142 143/143/143 144/144/144
f 145/145/145 144/144/144 143/143/143
f 144/144/144 145/145/145 146/146/146
f 147/147/147 146/146/146 145/145/145
f 148/148/148 149/149/149 150/150/150
f 151/151/151 149/149/149 148/148/148
f 149/149/149 151/151/151 152/152/152
f 151/151/151 153/153/153 152/152/152
f 153/153/153 151/151/151 154/154/154
f 153/153/153 154/154/154 155/155/155
f 156/156/156 157/157/157 158/158/158
f 158/158/158 157/157/157 159/159/159
f 157/157/157 156/156/156 160/160/160
f 160/160/160 161/161/161 157/157/157
f 162/162/162 163/163/163 161/161/161
f 164/164/164 165/165/165 166/166/166
f 166/166/166 167/167/167 164/164/164
f 167/167/167 168/168/168 169/169/169
f 170/170/170 171/171/171 172/172/172
f 173/173/173 172/172/172 171/171/171
f 174/174/174 172/172/172 173/173/173
f 172/172/172 174/174/174 175/175/175
f 176/176/176 177/177/177 178/178/178
f 179/179/179 180/180/180 181/181/181
f 182/182/182 183/183/183 184/184/184
f 183/183/183 182/182/182 185/185/185
f 186/186/186 187/187/187 188/188/188
f 189/189/189 190/190/190 191/191/191
f 192/192/192 193/193/193 194/194/194
f 194/194/194 195/195/195 192/192/192
f 195/195/195 194/194/194 196/196/196
f 196/196/196 197/197/197 195/195/195
f 197/197/197 196/196/196 198/198/198
f 199/199/199 200/200/200 201/201/201
f 200/200/200 202/202/202 201/201/201
f 201/201/201 203/203/203 199/199/199
f 199/199/199 203/203/203 204/204/204
f 204/204/204 205/205/205 206/206/206
f 207/207/207 208/208/208 209/209/209
f 210/210/210 211/211/211 208/208/208
f 211/211/211 210/210/210 212/212/212
f 212/212/212 213/213/213 211/211/211
f 214/214/214 215/215/215 216/216/216
f 215/215/215 214/214/214 217/217/217
f 218/218/218 219/219/219 220/220/220
f 219/219/219 218/218/218 221/221/221
f 222/222/222 223/223/223 224/224/224
f 223/223/223 222/222/222 225/225/225
f 226/226/226 227/227/227 228/228/228
f 227/227/227 226/226/226 229/229/229
f 229/229/229 230/230/230 227/227/227
f 231/231/231 232/232/232 233/233/233
f 234/234/234 235/235/235 236/236/236
f 237/237/237 238/238/238 239/239/239
f 240/240/240 241/241/241 242/242/242
f 241/241/241 240/240/240 243/243/243
f 244/244/244 245/245/245 246/246/246
f 246/246/246 247/247/247 244/244/244
f 248/248/248 249/249/249 247/247/247
f 249/249/249 248/248/248 250/250/250
f 251/251/251 252/252/252 253/253/253
f 254/254/254 251/251/251 255/255/255
f 255/255/255 256/256/256 254/254/254
f 256/256/256 257/257/257 254/254/254
f 258/258/258 259/259/259 260/260/260
f 260/260/260 261/261/261 262/262/262
f 263/263/263 264/264/264 265/265/265
f 264/264/264 263/263/263 266/266/266
f 267/267/267 268/268/268 269/269/269
f 268/268/268 267/267/267 270/270/270
f 271/271/271 272/272/272 273/273/273
f 272/272/272 274/274/274 273/273/273
f 274/274/274 275/275/275 276/276/276
f 277/277/277 276/276/276 275/275/275
f 275/275/275 274/274/274 278/278/278
f 279/279/279 280/280/280 281/281/281
f 282/282/282 279/279/279 281/281/281
f 283/283/283 284/284/284 285/285/285
f 286/286/286 287/287/287 285/285/285
f 288/288/288 285/285/285 279/279/279
f 279/279/279 282/282/282 288/288/288
f 285/285/285 288/288/288 289/289/289
f 290/290/290 291/291/291 292/292/292
f 293/293/293 294/294/294 291/291/291
f 295/295/295 293/293/293 296/296/296
f 297/297/297 296/296/296 290/290/290
f 298/298/298 299/299/299 300/300/300
f 301/301/301 300/300/300 302/302/302
f 299/299/299 303/303/303 300/300/300
f 300/300/300 304/304/304 302/302/302
f 305/305/305 306/306/306 307/307/307
f 308/308/308 309/309/309 306/306/306
f 309/309/309 308/308/308 310/310/310
f 310/310/310 308/308/308 311/311/311
f 312/312/312 311/311/311 308/308/308
f 305/305/305 312/312/312 308/308/308
f 312/312/312 305/305/305 313/313/313
f 314/314/314 315/315/315 316/316/316
f 317/317/317 318/318/318 319/319/319
f 318/318/318 317/317/317 320/320/320
f 321/321/321 322/322/322 323/323/323
f 324/324/324 325/325/325 326/326/326
f 327/327/327 328/328/328 329/329/329
f 328/328/328 327/327/327 330/330/330
f 330/330/330 331/331/331 328/328/328
f 331/331/331 330/330/330 332/332/332
f 333/333/333 334/334/334 335/335/335
f 335/335/335 334/334/334 336/336/336
f 334/334/334 333/333/333 337/337/337
f 337/337/337 333/333/333 338/338/338
f 337/337/337 338/338/338 339/339/339
f 339/339/339 338/338/338 340/340/340
f 341/341/341 342/342/342 343/343/343
f 342/342/342 341/341/341 344/344/344
f 342/342/342 345/345/345 343/343/343
f 346/346/346 347/347/347 348/348/348
f 349/349/349 350/350/350 351/351/351
f 350/350/350 349/349/349 352/352/352
f 353/353/353 354/354/354 355/355/355
f 356/356/356 357/357/357 358/358/358
f 357/357/357 356/356/356 359/359/359
f 360/360/360 359/359/359 356/356/356
f 361/361/361 360/360/360 356/356/356
f 360/360/360 361/361/361 362/362/362
f 363/363/363 364/364/364 365/365/365
f 365/365/365 364/364/364 366/366/366
f 367/367/367 368/368/368 369/369/369
f 370/370/370 371/371/371 372/372/372
f 373/373/373 374/374/374 375/375/375
f 375/375/375 376/376/376 373/373/373
f 373/373/373 376/376/376 377/377/377
f 378/378/378 379/379/379 380/380/380
f 381/381/381 382/382/382 383/383/383
f 382/382/382 381/381/381 384/384/384
f 385/385/385 384/384/384 386/386/386
f 386/386/386 387/387/387 385/385/385
f 387/387/387 386/386/386 388/388/388
f 389/389/389 390/390/390 391/391/391
f 391/391/391 392/392/392 389/389/389
f 392/392/392 393/393/393 394/394/394
f 393/393/393 395/395/395 394/394/394
f 393/393/393 396/396/396 395/395/395
f 397/397/397 398/398/398 396/396/396
f 399/399/399 398/398/398 397/397/397
f 400/400/400 401/401/401 402/402/402
f 403/403/403 404/404/404 405/405/405
f 406/406/406 407/407/407 408/408/408
f 409/409/409 410/410/410 411/411/411
f 411/411/411 410/410/410 412/412/412
f 413/413/413 414/414/414 415/415/415
f 414/414/414 416/416/416 415/415/415
f 414/414/414 417/417/417 416/416/416
f 416/416/416 417/417/417 418/418/418
f 419/419/419 418/418/418 420/420/420
f 421/421/421 422/422/422 423/423/423
f 424/424/424 423/423/423 422/422/422
f 423/423/423 425/425/425 421/421/421
f 426/426/426 427/427/427 428/428/428
f 428/428/428 427/427/427 429/429/429
f 430/430/430 431/431/431 432/432/432
f 431/431/431 433/433/433 432/432/432
f 434/434/434 435/435/435 436/436/436
f 437/437/437 438/438/438 439/439/439
f 440/440/440 439/439/439 441/441/441
f 441/441/441 442/442/442 440/440/440
f 442/442/442 441/441/441 443/443/443
f 438/438/438 437/437/437 444/444/444
f 445/445/445 446/446/446 447/447/447
f 448/448/448 449/449/449 450/450/450
f 450/450/450 449/449/449 451/451/451
f 450/450/450 451/451/451 452/452/452
f 452/452/452 451/451/451 453/453/453
