# Bolts | length 4 | barrel -X up +Y
mtllib 06.mtl
g bolts
v -0.005100 -0.074409 0.016581
v -0.003661 -0.079315 0.037228
v -0.003723 -0.070705 0.016581
v -0.005100 -0.081906 0.034726
v -0.003535 -0.077970 0.017207
v -0.003661 -0.100000 0.045988
v -0.003535 -0.084401 0.032223
v -0.005100 -0.100000 0.042235
v -0.003535 -0.100000 0.039106
v -0.003535 -0.115599 0.032223
v -0.005100 -0.118095 0.034726
v -0.003535 -0.122025 0.017207
v -0.005100 -0.125591 0.016581
v -0.003661 -0.120686 0.037228
v -0.003723 -0.129295 0.016581
v 0.003661 -0.079315 0.037228
v -0.000031 -0.069104 0.015955
v -0.000031 -0.078226 0.038480
v 0.003661 -0.070705 0.016581
v -0.003661 -0.079315 0.037228
v -0.003723 -0.070705 0.016581
v -0.003535 -0.122025 0.017207
v -0.003535 -0.115599 0.032223
v -0.000031 -0.114597 0.031597
v -0.000031 -0.120542 0.017207
v 0.003535 -0.122025 0.017207
v 0.003535 -0.115599 0.032223
v -0.000031 -0.085403 0.031597
v -0.003535 -0.100000 0.039106
v -0.003535 -0.084401 0.032223
v -0.000031 -0.100000 0.037228
v 0.003535 -0.100000 0.039106
v 0.003535 -0.084401 0.032223
v -0.000031 -0.114597 0.031597
v -0.003535 -0.115599 0.032223
v 0.003535 -0.115599 0.032223
v 0.003661 -0.079315 0.037228
v 0.005100 -0.074409 0.016581
v 0.003661 -0.070705 0.016581
v 0.005100 -0.081906 0.034726
v 0.003535 -0.077970 0.017207
v 0.003661 -0.100000 0.045988
v 0.003535 -0.084401 0.032223
v 0.003661 -0.120686 0.037228
v 0.003661 -0.129295 0.016581
v 0.005100 -0.125591 0.016581
v 0.005100 -0.118095 0.034726
v 0.003535 -0.122025 0.017207
v 0.005100 -0.100000 0.042235
v 0.003535 -0.100000 0.039106
v 0.003535 -0.115599 0.032223
v -0.000031 -0.085403 0.031597
v 0.003535 -0.077970 0.017207
v 0.003535 -0.084401 0.032223
v -0.003535 -0.077970 0.017207
v -0.003535 -0.084401 0.032223
v -0.000031 -0.079458 0.017207
v -0.003661 -0.120686 0.037228
v -0.003723 -0.129295 0.016581
v -0.000031 -0.130897 0.015955
v -0.000031 -0.121774 0.038480
v 0.003661 -0.120686 0.037228
v 0.003661 -0.129295 0.016581
v -0.000031 -0.100000 0.047240
v 0.003661 -0.079315 0.037228
v -0.000031 -0.078226 0.038480
v -0.003661 -0.079315 0.037228
v 0.003661 -0.100000 0.045988
v -0.003661 -0.100000 0.045988
v -0.003661 -0.120686 0.037228
v -0.000031 -0.121774 0.038480
v 0.003661 -0.120686 0.037228
v -0.044643 -0.100000 -0.012827
v -0.029814 -0.070217 -0.000312
v -0.031566 -0.068454 -0.012827
v -0.029814 -0.129783 -0.000312
v -0.031566 -0.131547 -0.012827
v -0.042141 -0.100000 -0.000312
v -0.000031 -0.055382 -0.012827
v 0.029751 -0.070217 -0.000312
v 0.031566 -0.068454 -0.012827
v -0.000031 -0.057879 -0.000312
v -0.029814 -0.070217 -0.000312
v -0.031566 -0.068454 -0.012827
v 0.029751 -0.070217 -0.000312
v 0.042140 -0.100000 -0.000312
v 0.044580 -0.100000 -0.012827
v 0.029751 -0.129783 -0.000312
v 0.031566 -0.068454 -0.012827
v 0.031566 -0.131547 -0.012827
v 0.029751 -0.129783 -0.000312
v -0.000031 -0.144618 -0.012827
v 0.031566 -0.131547 -0.012827
v -0.000031 -0.142122 -0.000312
v -0.029814 -0.129783 -0.000312
v -0.031566 -0.131547 -0.012827
v -0.023245 -0.123214 0.018459
v -0.032817 -0.100000 0.018459
v -0.042141 -0.100000 -0.000312
v -0.023245 -0.076787 0.018459
v -0.029814 -0.129783 -0.000312
v -0.029814 -0.070217 -0.000312
v -0.049586 -0.100000 -0.047240
v -0.031566 -0.068454 -0.012827
v -0.035071 -0.064942 -0.047240
v -0.044643 -0.100000 -0.012827
v -0.031566 -0.131547 -0.012827
v -0.035071 -0.135051 -0.047240
v -0.000031 -0.057879 -0.000312
v -0.029814 -0.070217 -0.000312
v -0.023245 -0.076787 0.018459
v -0.000031 -0.067170 0.018459
v 0.023182 -0.076787 0.018459
v 0.029751 -0.070217 -0.000312
v 0.031566 -0.068454 -0.012827
v -0.000031 -0.050427 -0.047240
v -0.000031 -0.055382 -0.012827
v -0.031566 -0.068454 -0.012827
v 0.035070 -0.064942 -0.047240
v -0.035071 -0.064942 -0.047240
v 0.042140 -0.100000 -0.000312
v 0.023182 -0.123214 0.018459
v 0.029751 -0.129783 -0.000312
v 0.029751 -0.070217 -0.000312
v 0.023182 -0.076787 0.018459
v 0.032817 -0.100000 0.018459
v 0.031566 -0.068454 -0.012827
v 0.049586 -0.100000 -0.047240
v 0.035070 -0.064942 -0.047240
v 0.044580 -0.100000 -0.012827
v 0.031566 -0.131547 -0.012827
v 0.035070 -0.135051 -0.047240
v -0.000031 -0.142122 -0.000312
v -0.023245 -0.123214 0.018459
v -0.029814 -0.129783 -0.000312
v -0.000031 -0.132830 0.018459
v 0.023182 -0.123214 0.018459
v 0.029751 -0.129783 -0.000312
v 0.031566 -0.131547 -0.012827
v -0.000031 -0.149573 -0.047240
v 0.035070 -0.135051 -0.047240
v -0.031566 -0.131547 -0.012827
v -0.035071 -0.135051 -0.047240
v -0.000031 -0.144618 -0.012827
v -0.023245 -0.123214 0.018459
v 0.023182 -0.076787 0.018459
v -0.023245 -0.076787 0.018459
v -0.000031 -0.067170 0.018459
v -0.032817 -0.100000 0.018459
v 0.023182 -0.123214 0.018459
v 0.032817 -0.100000 0.018459
v -0.000031 -0.132830 0.018459
vt 3.99697 -46.9949 
vt 4.00111 -46.9959 
vt 3.9969 -46.9941 
vt 4.00059 -46.9964 
vt 3.99705 -46.9956 
vt 4.00282 -47 
vt 4.00009 -46.9969 
vt 4.00209 -47 
vt 4.00138 -47 
vt 4.00009 -47.0031 
vt 4.00059 -47.0036 
vt 3.99705 -47.0044 
vt 3.99697 -47.0051 
vt 4.00111 -47.0041 
vt 3.9969 -47.0059 
vt 4.00073 -47.0011 
vt 4 -46.9969 
vt 4 -47.0013 
vt 4.00074 -46.9969 
vt 3.99927 -47.0011 
vt 3.99926 -46.9969 
vt 3.99929 -46.997 
vt 3.9993 -47.0001 
vt 4 -46.9999 
vt 4 -46.9971 
vt 4.00071 -46.997 
vt 4.0007 -47.0001 
vt 4 -46.9971 
vt 4.0007 -47 
vt 4.0007 -46.9969 
vt 4 -47 
vt 3.9993 -47 
vt 3.9993 -46.9969 
vt 4 -47.0029 
vt 4.0007 -47.0031 
vt 3.9993 -47.0031 
vt 3.99889 -46.9959 
vt 4.00303 -46.9949 
vt 4.0031 -46.9941 
vt 3.99941 -46.9964 
vt 4.00295 -46.9956 
vt 3.99718 -47 
vt 3.99991 -46.9969 
vt 3.99889 -47.0041 
vt 4.0031 -47.0059 
vt 4.00303 -47.0051 
vt 3.99941 -47.0036 
vt 4.00295 -47.0044 
vt 3.99791 -47 
vt 3.99862 -47 
vt 3.99991 -47.0031 
vt 4 -46.9999 
vt 3.99929 -46.997 
vt 3.9993 -47.0001 
vt 4.00071 -46.997 
vt 4.0007 -47.0001 
vt 4 -46.9971 
vt 4.00073 -47.0011 
vt 4.00074 -46.9969 
vt 4 -46.9969 
vt 4 -47.0013 
vt 3.99927 -47.0011 
vt 3.99926 -46.9969 
vt 4 -47 
vt 4.00073 -46.9959 
vt 4 -46.9957 
vt 3.99927 -46.9959 
vt 4.00073 -47 
vt 3.99927 -47 
vt 3.99927 -47.0041 
vt 4 -47.0043 
vt 4.00073 -47.0041 
vt 51.9988 -5 
vt 52.0012 -4.99405 
vt 51.9988 -4.9937 
vt 52.0012 -5.00595 
vt 51.9988 -5.0063 
vt 52.0012 -5 
vt 52 -4.99878 
vt 52.006 -5.00122 
vt 52.0063 -4.99878 
vt 52 -5.00122 
vt 51.994 -5.00122 
vt 51.9937 -4.99878 
vt 51.9988 -4.99405 
vt 51.9988 -5 
vt 52.0012 -5 
vt 51.9988 -5.00595 
vt 52.0012 -4.9937 
vt 52.0012 -5.0063 
vt 51.994 -5.00122 
vt 52 -4.99878 
vt 51.9937 -4.99878 
vt 52 -5.00122 
vt 52.006 -5.00122 
vt 52.0063 -4.99878 
vt 16.0066 -57.0046 
vt 16.0066 -57 
vt 16.0028 -57 
vt 16.0066 -56.9954 
vt 16.0028 -57.006 
vt 16.0028 -56.994 
vt 15.9934 -57 
vt 16.0004 -56.9937 
vt 15.9934 -56.993 
vt 16.0004 -57 
vt 16.0004 -57.0063 
vt 15.9934 -57.007 
vt 16 -57.0028 
vt 15.9941 -57.0028 
vt 15.9954 -57.0066 
vt 16 -57.0066 
vt 16.0046 -57.0066 
vt 16.006 -57.0028 
vt 16.0063 -57.0004 
vt 16 -56.9934 
vt 16 -57.0004 
vt 15.9937 -57.0004 
vt 16.007 -56.9934 
vt 15.993 -56.9934 
vt 15.9972 -57 
vt 15.9934 -57.0046 
vt 15.9972 -57.006 
vt 15.9972 -56.994 
vt 15.9934 -56.9954 
vt 15.9934 -57 
vt 15.9996 -56.9937 
vt 16.0066 -57 
vt 16.0066 -56.993 
vt 15.9996 -57 
vt 15.9996 -57.0063 
vt 16.0066 -57.007 
vt 16 -57.0028 
vt 16.0046 -57.0066 
vt 16.006 -57.0028 
vt 16 -57.0066 
vt 15.9954 -57.0066 
vt 15.9941 -57.0028 
vt 15.9937 -57.0004 
vt 16 -56.9934 
vt 15.993 -56.9934 
vt 16.0063 -57.0004 
vt 16.007 -56.9934 
vt 16 -57.0004 
vt 15.9954 -57.0046 
vt 16.0046 -56.9954 
vt 15.9954 -56.9954 
vt 16 -56.9934 
vt 15.9934 -57 
vt 16.0046 -57.0046 
vt 16.0066 -57 
vt 16 -57.0066 
vn -0.9921 0.1024 0.0394
vn -0.6693 0.5276 0.5197
vn -0.6299 0.7165 0.2992
vn -1.0000 0.0551 0.0551
vn -0.7244 -0.6299 -0.2677
vn -0.6693 0.0000 0.7402
vn -0.7402 -0.4724 -0.4724
vn -1.0000 0.0000 0.0709
vn -0.7480 0.0000 -0.6693
vn -0.7402 0.4724 -0.4724
vn -1.0000 -0.0551 0.0551
vn -0.7323 0.6299 -0.2677
vn -0.9921 -0.1024 0.0394
vn -0.6693 -0.5276 0.5197
vn -0.6299 -0.7165 0.2992
vn 0.6693 0.5276 0.5197
vn 0.0000 0.9291 0.3780
vn 0.0000 0.7087 0.7087
vn 0.6299 0.7165 0.2992
vn -0.6693 0.5276 0.5197
vn -0.6299 0.7165 0.2992
vn -0.7323 0.6299 -0.2677
vn -0.7402 0.4724 -0.4724
vn 0.0000 0.7087 -0.7087
vn 0.0000 0.9213 -0.3858
vn 0.7323 0.6299 -0.2677
vn 0.7402 0.4724 -0.4724
vn 0.0000 -0.7008 -0.7087
vn -0.7480 0.0000 -0.6693
vn -0.7402 -0.4724 -0.4724
vn 0.0000 0.0000 -1.0000
vn 0.7480 0.0000 -0.6693
vn 0.7402 -0.4724 -0.4724
vn 0.0000 0.7087 -0.7087
vn -0.7402 0.4724 -0.4724
vn 0.7402 0.4724 -0.4724
vn 0.6693 0.5276 0.5197
vn 0.9921 0.1024 0.0394
vn 0.6299 0.7165 0.2992
vn 1.0000 0.0551 0.0551
vn 0.7323 -0.6299 -0.2677
vn 0.6693 0.0000 0.7402
vn 0.7402 -0.4724 -0.4724
vn 0.6693 -0.5276 0.5197
vn 0.6299 -0.7165 0.2992
vn 0.9921 -0.1024 0.0394
vn 1.0000 -0.0551 0.0551
vn 0.7323 0.6299 -0.2677
vn 1.0000 0.0000 0.0709
vn 0.7480 0.0000 -0.6693
vn 0.7402 0.4724 -0.4724
vn 0.0000 -0.7008 -0.7087
vn 0.7323 -0.6299 -0.2677
vn 0.7402 -0.4724 -0.4724
vn -0.7244 -0.6299 -0.2677
vn -0.7402 -0.4724 -0.4724
vn 0.0000 -0.9213 -0.3858
vn -0.6693 -0.5276 0.5197
vn -0.6299 -0.7165 0.2992
vn 0.0000 -0.9291 0.3780
vn 0.0000 -0.7087 0.7087
vn 0.6693 -0.5276 0.5197
vn 0.6299 -0.7165 0.2992
vn 0.0000 0.0000 1.0000
vn 0.6693 0.5276 0.5197
vn 0.0000 0.7087 0.7087
vn -0.6693 0.5276 0.5197
vn 0.6693 0.0000 0.7402
vn -0.6693 0.0000 0.7402
vn -0.6693 -0.5276 0.5197
vn 0.0000 -0.7087 0.7087
vn 0.6693 -0.5276 0.5197
vn -0.9764 0.0000 0.1968
vn -0.6929 0.6929 0.1968
vn -0.6929 0.6929 0.1968
vn -0.6929 -0.6929 0.1968
vn -0.6929 -0.6929 0.1968
vn -0.9764 0.0000 0.1968
vn 0.0000 0.9764 0.1968
vn 0.6929 0.6929 0.1968
vn 0.6929 0.6929 0.1968
vn 0.0000 0.9764 0.1968
vn -0.6929 0.6929 0.1968
vn -0.6929 0.6929 0.1968
vn 0.6929 0.6929 0.1968
vn 0.9764 0.0000 0.1968
vn 0.9764 0.0000 0.1968
vn 0.6929 -0.6929 0.1968
vn 0.6929 0.6929 0.1968
vn 0.6929 -0.6929 0.1968
vn 0.6929 -0.6929 0.1968
vn 0.0000 -0.9764 0.1968
vn 0.6929 -0.6929 0.1968
vn 0.0000 -0.9764 0.1968
vn -0.6929 -0.6929 0.1968
vn -0.6929 -0.6929 0.1968
vn -0.6299 -0.6299 0.4409
vn -0.8976 0.0000 0.4409
vn -0.8976 0.0000 0.4409
vn -0.6299 0.6299 0.4409
vn -0.6299 -0.6299 0.4409
vn -0.6299 0.6299 0.4409
vn -0.9921 0.0000 0.1417
vn -0.7008 0.7008 0.1417
vn -0.7008 0.7008 0.1417
vn -0.9921 0.0000 0.1417
vn -0.7008 -0.7008 0.1417
vn -0.7008 -0.7008 0.1417
vn 0.0000 0.8976 0.4409
vn -0.6299 0.6299 0.4409
vn -0.6299 0.6299 0.4409
vn 0.0000 0.8976 0.4409
vn 0.6299 0.6299 0.4409
vn 0.6299 0.6299 0.4409
vn 0.7008 0.7008 0.1417
vn 0.0000 0.9921 0.1417
vn 0.0000 0.9921 0.1417
vn -0.7008 0.7008 0.1417
vn 0.7008 0.7008 0.1417
vn -0.7008 0.7008 0.1417
vn 0.8976 0.0000 0.4409
vn 0.6299 -0.6299 0.4409
vn 0.6299 -0.6299 0.4409
vn 0.6299 0.6299 0.4409
vn 0.6299 0.6299 0.4409
vn 0.8976 0.0000 0.4409
vn 0.7008 0.7008 0.1417
vn 0.9921 0.0000 0.1417
vn 0.7008 0.7008 0.1417
vn 0.9921 0.0000 0.1417
vn 0.7008 -0.7008 0.1417
vn 0.7008 -0.7008 0.1417
vn 0.0000 -0.8976 0.4409
vn -0.6299 -0.6299 0.4409
vn -0.6299 -0.6299 0.4409
vn 0.0000 -0.8976 0.4409
vn 0.6299 -0.6299 0.4409
vn 0.6299 -0.6299 0.4409
vn 0.7008 -0.7008 0.1417
vn 0.0000 -0.9921 0.1417
vn 0.7008 -0.7008 0.1417
vn -0.7008 -0.7008 0.1417
vn -0.7008 -0.7008 0.1417
vn 0.0000 -0.9921 0.1417
vn 0.0000 0.0000 1.0000
vn 0.0000 0.0000 1.0000
vn 0.0000 0.0000 1.0000
vn 0.0000 0.0000 1.0000
vn 0.0000 0.0000 1.0000
vn 0.0000 0.0000 1.0000
vn 0.0000 0.0000 1.0000
vn 0.0000 0.0000 1.0000
usemtl Meshpart5Mtl
f 1/1/1 2/2/2 3/3/3
f 2/2/2 1/1/1 4/4/4
f 5/5/5 4/4/4 1/1/1
f 6/6/6 2/2/2 4/4/4
f 4/4/4 5/5/5 7/7/7
f 8/8/8 4/4/4 7/7/7
f 6/6/6 4/4/4 8/8/8
f 8/8/8 7/7/7 9/9/9
f 10/10/10 8/8/8 9/9/9
f 11/11/11 6/6/6 8/8/8
f 8/8/8 10/10/10 11/11/11
f 12/12/12 11/11/11 10/10/10
f 11/11/11 12/12/12 13/13/13
f 6/6/6 11/11/11 14/14/14
f 13/13/13 14/14/14 11/11/11
f 14/14/14 13/13/13 15/15/15
f 16/16/16 17/17/17 18/18/18
f 17/17/17 16/16/16 19/19/19
f 17/17/17 20/20/20 18/18/18
f 20/20/20 17/17/17 21/21/21
f 22/22/22 23/23/23 24/24/24
f 24/24/24 25/25/25 22/22/22
f 24/24/24 26/26/26 25/25/25
f 26/26/26 24/24/24 27/27/27
f 28/28/28 29/29/29 30/30/30
f 29/29/29 28/28/28 31/31/31
f 32/32/32 28/28/28 33/33/33
f 28/28/28 32/32/32 31/31/31
f 34/34/34 29/29/29 31/31/31
f 32/32/32 34/34/34 31/31/31
f 29/29/29 34/34/34 35/35/35
f 34/34/34 32/32/32 36/36/36
f 37/37/37 38/38/38 39/39/39
f 38/38/38 37/37/37 40/40/40
f 40/40/40 41/41/41 38/38/38
f 42/42/42 40/40/40 37/37/37
f 41/41/41 40/40/40 43/43/43
f 44/44/44 45/45/45 46/46/46
f 44/44/44 46/46/46 47/47/47
f 47/47/47 42/42/42 44/44/44
f 47/47/47 46/46/46 48/48/48
f 42/42/42 47/47/47 49/49/49
f 40/40/40 42/42/42 49/49/49
f 49/49/49 43/43/43 40/40/40
f 43/43/43 49/49/49 50/50/50
f 51/51/51 49/49/49 47/47/47
f 47/47/47 48/48/48 51/51/51
f 49/49/49 51/51/51 50/50/50
f 52/52/52 53/53/53 54/54/54
f 55/55/55 52/52/52 56/56/56
f 53/53/53 52/52/52 57/57/57
f 52/52/52 55/55/55 57/57/57
f 58/58/58 59/59/59 60/60/60
f 60/60/60 61/61/61 58/58/58
f 60/60/60 62/62/62 61/61/61
f 62/62/62 60/60/60 63/63/63
f 64/64/64 65/65/65 66/66/66
f 64/64/64 66/66/66 67/67/67
f 65/65/65 64/64/64 68/68/68
f 67/67/67 69/69/69 64/64/64
f 70/70/70 64/64/64 69/69/69
f 64/64/64 70/70/70 71/71/71
f 64/64/64 71/71/71 72/72/72
f 72/72/72 68/68/68 64/64/64
f 73/73/73 74/74/74 75/75/75
f 76/76/76 73/73/73 77/77/77
f 74/74/74 73/73/73 78/78/78
f 76/76/76 78/78/78 73/73/73
f 79/79/79 80/80/80 81/81/81
f 80/80/80 79/79/79 82/82/82
f 83/83/83 82/82/82 79/79/79
f 83/83/83 79/79/79 84/84/84
f 85/85/85 86/86/86 87/87/87
f 88/88/88 87/87/87 86/86/86
f 85/85/85 87/87/87 89/89/89
f 87/87/87 88/88/88 90/90/90
f 91/91/91 92/92/92 93/93/93
f 91/91/91 94/94/94 92/92/92
f 95/95/95 92/92/92 94/94/94
f 92/92/92 95/95/95 96/96/96
usemtl Meshpart7Mtl
f 97/97/97 98/98/98 99/99/99
f 100/100/100 99/99/99 98/98/98
f 99/99/99 101/101/101 97/97/97
f 99/99/99 100/100/100 102/102/102
f 103/103/103 104/104/104 105/105/105
f 104/104/104 103/103/103 106/106/106
f 103/103/103 107/107/107 106/106/106
f 107/107/107 103/103/103 108/108/108
f 109/109/109 110/110/110 111/111/111
f 111/111/111 112/112/112 109/109/109
f 113/113/113 109/109/109 112/112/112
f 109/109/109 113/113/113 114/114/114
f 115/115/115 116/116/116 117/117/117
f 116/116/116 118/118/118 117/117/117
f 116/116/116 115/115/115 119/119/119
f 118/118/118 116/116/116 120/120/120
f 121/121/121 122/122/122 123/123/123
f 121/121/121 124/124/124 125/125/125
f 122/122/122 121/121/121 126/126/126
f 125/125/125 126/126/126 121/121/121
f 127/127/127 128/128/128 129/129/129
f 128/128/128 127/127/127 130/130/130
f 131/131/131 128/128/128 130/130/130
f 128/128/128 131/131/131 132/132/132
f 133/133/133 134/134/134 135/135/135
f 134/134/134 133/133/133 136/136/136
f 137/137/137 136/136/136 133/133/133
f 133/133/133 138/138/138 137/137/137
f 139/139/139 140/140/140 141/141/141
f 140/140/140 142/142/142 143/143/143
f 140/140/140 139/139/139 144/144/144
f 142/142/142 140/140/140 144/144/144
f 145/145/145 146/146/146 147/147/147
f 147/147/147 146/146/146 148/148/148
f 145/145/145 147/147/147 149/149/149
f 145/145/145 150/150/150 146/146/146
f 146/146/146 150/150/150 151/151/151
f 150/150/150 145/145/145 152/152/152
