# Venting | length 4 | barrel -X up +Y
mtllib 06.mtl
g venting
v -1.000000 0.398419 -0.012514
v -1.000000 0.371095 0.014722
v -1.000000 0.409770 -0.001472
v -1.000000 0.371095 -0.001472
v -1.000000 0.409741 -0.039750
v -1.000000 0.343770 -0.012514
v -1.000000 0.425787 -0.039750
v -1.000000 0.332427 -0.001472
v -1.000000 0.409770 -0.078764
v -1.000000 0.332457 -0.039750
v -1.000000 0.398419 -0.066986
v -1.000000 0.316403 -0.039750
v -1.000000 0.371095 -0.078764
v -1.000000 0.332427 -0.078764
v -1.000000 0.371095 -0.094958
v -1.000000 0.343770 -0.066986
v -0.943688 0.409741 -0.039750
v -0.943688 0.371095 -0.001472
v -0.943688 0.398419 -0.012514
v -0.943688 0.398419 -0.066986
v -0.943688 0.343770 -0.066986
v -0.943688 0.371095 -0.078764
v -0.943688 0.332457 -0.039750
v -0.943688 0.343770 -0.012514
v -0.887450 0.371095 -0.102319
v -0.887450 0.294738 -0.116305
v -0.887450 0.326855 -0.083916
v -0.887450 0.371095 -0.147957
v -0.887450 0.263108 -0.039750
v -0.887450 0.447458 -0.116305
v -0.887450 0.308526 -0.039750
v -0.887450 0.415343 -0.083916
v -0.887450 0.326855 0.004417
v -0.887450 0.479089 -0.039750
v -0.887450 0.294738 0.036805
v -0.887450 0.433671 -0.039750
v -0.887450 0.371095 0.067722
v -0.887450 0.415343 0.004417
v -0.887450 0.371095 0.022819
v -0.887450 0.447458 0.036805
v -0.887450 0.263108 -0.039750
v -0.845491 0.265044 0.066250
v -0.887450 0.294738 0.036805
v -0.887450 0.447458 0.036805
v -0.845491 0.371095 0.110416
v -0.845491 0.477153 0.066250
v -0.887450 0.479089 -0.039750
v -0.845491 0.265044 -0.145749
v -0.887450 0.294738 -0.116305
v -0.845491 0.371095 -0.189915
v -0.887450 0.371095 -0.147957
v -0.845491 0.477153 -0.145749
v -0.887450 0.447458 -0.116305
v -0.576445 0.602225 -0.071402
v -0.576445 0.555769 -0.095694
v -0.576445 0.555769 -0.071402
v -0.576445 0.602225 -0.095694
v -0.576445 0.493391 -0.071402
v -0.576445 0.493391 -0.095694
v -0.576445 0.555769 -0.039750
v -0.576445 0.493391 -0.039750
v -0.576445 0.493391 -0.008833
v -0.576445 0.555769 -0.008833
v -0.576445 0.555769 0.015458
v -0.576445 0.493391 0.015458
v -0.576445 0.602225 -0.008833
v -0.576445 0.602225 0.015458
v -0.549208 0.589115 -0.042694
v -0.558925 0.554246 -0.027972
v -0.549208 0.589115 -0.037541
v -0.558925 0.554246 -0.052263
v 0.751123 0.613274 0.013250
v 0.730364 0.571014 0.044902
v 0.751123 0.613274 0.044902
v 0.730364 0.571014 0.013250
v 0.730364 0.480827 0.044902
v 0.730364 0.480827 0.013250
v 0.730364 0.571014 -0.125138
v 0.751123 0.613274 -0.093485
v 0.751123 0.613274 -0.125138
v 0.730364 0.571014 -0.093485
v 0.730364 0.480827 -0.125138
v 0.730364 0.480827 -0.093485
v 0.752742 0.532081 0.033861
v 0.752742 0.532081 -0.113361
v 0.735370 0.482099 0.033861
v 0.735370 0.482099 -0.113361
v 0.793670 0.538537 -0.039750
v 0.793670 0.484006 -0.016931
v 0.793670 0.543042 -0.016931
v 0.793670 0.484006 -0.062569
v 0.793670 0.543042 -0.062569
v 0.793670 0.603977 -0.064041
v 0.793670 0.626171 -0.039750
v 0.793670 0.612596 -0.072874
v 0.793670 0.579832 -0.086125
v 0.793670 0.613973 -0.039750
v 0.793670 0.579832 -0.074346
v 0.793670 0.603977 -0.015458
v 0.793670 0.555689 -0.064041
v 0.793670 0.612596 -0.007361
v 0.793670 0.547069 -0.072874
v 0.793670 0.579832 0.006625
v 0.793670 0.533494 -0.039750
v 0.793670 0.579832 -0.005889
v 0.793670 0.545692 -0.039750
v 0.793670 0.555689 -0.015458
v 0.793670 0.547069 -0.007361
v -1.000000 0.409770 -0.078764
v -1.000000 0.425787 -0.039750
v -0.985499 0.439928 -0.039750
v -1.000000 0.409770 -0.001472
v -0.985499 0.419767 -0.088332
v -0.985499 0.419767 0.008833
v -0.943688 0.343770 -0.012514
v -1.000000 0.332457 -0.039750
v -1.000000 0.343770 -0.012514
v -1.000000 0.343770 -0.066986
v -0.943688 0.332457 -0.039750
v -0.943688 0.343770 -0.066986
v -0.845491 0.477153 0.066250
v -0.845491 0.521084 -0.039750
v -0.887450 0.479089 -0.039750
v -0.845491 0.477153 -0.145749
v -0.544277 0.589115 -0.037541
v -0.544277 0.589115 -0.042694
v -0.549208 0.589115 -0.037541
v -0.549208 0.589115 -0.042694
v 0.809937 0.555689 -0.015458
v 0.793670 0.545692 -0.039750
v 0.793670 0.555689 -0.015458
v 0.809937 0.545692 -0.039750
v 0.793670 0.555689 -0.064041
v 0.809937 0.555689 -0.064041
v 0.751123 0.613274 0.013250
v 0.853515 0.613274 0.044902
v 0.853515 0.613274 0.013250
v 0.751123 0.613274 0.044902
v 0.853515 0.613274 -0.125138
v 0.751123 0.613274 -0.093485
v 0.853515 0.613274 -0.093485
v 0.751123 0.613274 -0.125138
v -0.516452 0.555769 -0.039750
v -0.576445 0.555769 -0.071402
v -0.576445 0.555769 -0.039750
v -0.516452 0.555769 -0.071402
v -0.576445 0.555769 -0.008833
v -0.516452 0.555769 -0.008833
v 0.809937 0.538537 -0.039750
v 0.809937 0.543042 -0.062569
v 0.793670 0.538537 -0.039750
v 0.793670 0.543042 -0.062569
v 0.809937 0.543042 -0.016931
v 0.809937 0.538537 -0.039750
v 0.793670 0.543042 -0.016931
v 0.793670 0.538537 -0.039750
v 0.752742 0.532081 0.033861
v 0.857343 0.532081 -0.113361
v 0.752742 0.532081 -0.113361
v 0.857343 0.532081 0.033861
v 0.809937 0.612596 -0.007361
v 0.809937 0.626171 -0.039750
v 0.793670 0.612596 -0.007361
v 0.793670 0.626171 -0.039750
v 0.809937 0.612596 -0.072874
v 0.793670 0.612596 -0.072874
v -0.576445 0.602225 -0.095694
v -0.538535 0.602225 -0.071402
v -0.538535 0.602225 -0.095694
v -0.576445 0.602225 -0.071402
v -0.538535 0.602225 -0.008833
v -0.576445 0.602225 0.015458
v -0.538535 0.602225 0.015458
v -0.576445 0.602225 -0.008833
v -0.618108 0.437381 0.026500
v -0.845491 0.521084 -0.039750
v -0.845491 0.477153 0.066250
v -0.618108 0.464838 -0.039750
v -0.618108 0.437381 -0.105999
v -0.845491 0.477153 -0.145749
v -0.985499 0.439928 -0.039750
v -0.887450 0.415343 -0.083916
v -0.985499 0.419767 -0.088332
v -0.887450 0.433671 -0.039750
v -0.887450 0.415343 0.004417
v -0.985499 0.419767 0.008833
v -0.985499 0.371095 -0.108943
v -1.000000 0.409770 -0.078764
v -0.985499 0.419767 -0.088332
v -1.000000 0.371095 -0.094958
v -1.000000 0.332427 -0.078764
v -0.985499 0.322431 -0.088332
v -1.000000 0.398419 -0.012514
v -0.943688 0.398419 -0.012514
v -1.000000 0.371095 -0.001472
v -0.943688 0.371095 -0.001472
v -1.000000 0.343770 -0.012514
v -0.943688 0.343770 -0.012514
v 0.793670 0.579832 -0.005889
v 0.809937 0.555689 -0.015458
v 0.793670 0.555689 -0.015458
v 0.809937 0.579832 -0.005889
v 0.793670 0.603977 -0.015458
v 0.809937 0.603977 -0.015458
v 0.730364 0.480827 -0.125138
v 0.874273 0.571014 -0.125138
v 0.874273 0.480827 -0.125138
v 0.730364 0.571014 -0.125138
v 0.853515 0.613274 -0.125138
v 0.751123 0.613274 -0.125138
v -0.576445 0.555769 -0.095694
v -0.516452 0.570462 -0.095694
v -0.516452 0.555769 -0.095694
v -0.538535 0.602225 -0.095694
v -0.576445 0.602225 -0.095694
v -0.576445 0.493391 -0.095694
v -0.516452 0.493391 -0.095694
v -0.544277 0.589115 -0.042694
v -0.534560 0.554246 -0.052263
v -0.558925 0.554246 -0.052263
v -0.549208 0.589115 -0.042694
v 0.809937 0.543042 -0.062569
v 0.809937 0.484006 -0.062569
v 0.793670 0.484006 -0.062569
v 0.793670 0.543042 -0.062569
v 0.793670 0.579832 -0.086125
v 0.809937 0.547069 -0.072874
v 0.793670 0.547069 -0.072874
v 0.809937 0.579832 -0.086125
v 0.793670 0.612596 -0.072874
v 0.809937 0.612596 -0.072874
v -0.516452 0.570462 -0.008833
v -0.576445 0.555769 -0.008833
v -0.538535 0.602225 -0.008833
v -0.576445 0.602225 -0.008833
v -0.516452 0.555769 -0.008833
v 0.751123 0.613274 0.013250
v 0.874273 0.571014 0.013250
v 0.730364 0.571014 0.013250
v 0.853515 0.613274 0.013250
v 0.874273 0.480827 0.013250
v 0.730364 0.480827 0.013250
v -0.618108 0.304809 -0.105999
v -0.845491 0.265044 -0.145749
v -0.845491 0.371095 -0.189915
v -0.618108 0.437381 -0.105999
v -0.845491 0.477153 -0.145749
v -0.618108 0.371095 -0.133971
v -0.985499 0.371095 -0.108943
v -0.887450 0.415343 -0.083916
v -0.887450 0.371095 -0.102319
v -0.887450 0.326855 -0.083916
v -0.985499 0.419767 -0.088332
v -0.985499 0.322431 -0.088332
v 0.874641 0.482099 0.033861
v 0.874641 0.482099 -0.113361
v 0.857343 0.532081 0.033861
v 0.857343 0.532081 -0.113361
v 0.809937 0.484006 -0.016931
v 0.809937 0.538537 -0.039750
v 0.809937 0.543042 -0.016931
v 0.809937 0.484006 -0.062569
v 0.809937 0.543042 -0.062569
v 0.809937 0.603977 -0.015458
v 0.809937 0.626171 -0.039750
v 0.809937 0.612596 -0.007361
v 0.809937 0.579832 0.006625
v 0.809937 0.613973 -0.039750
v 0.809937 0.579832 -0.005889
v 0.809937 0.603977 -0.064041
v 0.809937 0.555689 -0.015458
v 0.809937 0.612596 -0.072874
v 0.809937 0.547069 -0.007361
v 0.809937 0.579832 -0.086125
v 0.809937 0.545692 -0.039750
v 0.809937 0.579832 -0.074346
v 0.809937 0.533494 -0.039750
v 0.809937 0.555689 -0.064041
v 0.809937 0.547069 -0.072874
v 0.874273 0.571014 0.044902
v 0.874273 0.480827 0.044902
v 0.874273 0.480827 0.013250
v 0.874273 0.571014 0.013250
v 0.853515 0.613274 0.044902
v 0.853515 0.613274 0.013250
v 0.874273 0.480827 -0.125138
v 0.874273 0.571014 -0.125138
v 0.874273 0.480827 -0.093485
v 0.874273 0.571014 -0.093485
v 0.853515 0.613274 -0.125138
v 0.853515 0.613274 -0.093485
v -0.538535 0.602225 -0.071402
v -0.516452 0.570462 -0.071402
v -0.538535 0.602225 -0.095694
v -0.516452 0.570462 -0.095694
v -0.516452 0.555769 -0.071402
v -0.516452 0.555769 -0.095694
v -0.516452 0.493391 -0.095694
v -0.516452 0.493391 -0.071402
v -0.516452 0.493391 -0.039750
v -0.516452 0.555769 -0.039750
v -0.516452 0.555769 -0.008833
v -0.516452 0.493391 -0.008833
v -0.516452 0.493391 0.015458
v -0.516452 0.555769 0.015458
v -0.516452 0.570462 0.015458
v -0.516452 0.570462 -0.008833
v -0.538535 0.602225 0.015458
v -0.538535 0.602225 -0.008833
v -0.544277 0.589115 -0.037541
v -0.534560 0.554246 -0.027972
v -0.534560 0.554246 -0.052263
v -0.544277 0.589115 -0.042694
v -0.985499 0.302269 -0.039750
v -1.000000 0.332427 -0.078764
v -0.985499 0.322431 -0.088332
v -1.000000 0.332427 -0.001472
v -0.985499 0.322431 0.008833
v -1.000000 0.316403 -0.039750
v -1.000000 0.409741 -0.039750
v -0.943688 0.409741 -0.039750
v -1.000000 0.398419 -0.012514
v -0.943688 0.398419 -0.012514
v -0.943688 0.398419 -0.066986
v -1.000000 0.398419 -0.066986
v -0.845491 0.265044 0.066250
v -0.887450 0.263108 -0.039750
v -0.845491 0.221113 -0.039750
v -0.845491 0.265044 -0.145749
v 0.793670 0.613973 -0.039750
v 0.809937 0.603977 -0.015458
v 0.793670 0.603977 -0.015458
v 0.809937 0.613973 -0.039750
v 0.793670 0.603977 -0.064041
v 0.809937 0.603977 -0.064041
v 0.793670 0.533494 -0.039750
v 0.809937 0.547069 -0.007361
v 0.793670 0.547069 -0.007361
v 0.809937 0.533494 -0.039750
v 0.793670 0.547069 -0.072874
v 0.809937 0.547069 -0.072874
v -0.618108 0.304809 0.026500
v -0.845491 0.265044 0.066250
v -0.845491 0.221113 -0.039750
v -0.618108 0.277359 -0.039750
v -0.618108 0.304809 -0.105999
v -0.845491 0.265044 -0.145749
v -0.887450 0.326855 -0.083916
v -0.985499 0.302269 -0.039750
v -0.985499 0.322431 -0.088332
v -0.887450 0.308526 -0.039750
v -0.887450 0.326855 0.004417
v -0.985499 0.322431 0.008833
v -1.000000 0.409770 -0.001472
v -0.985499 0.371095 0.028708
v -0.985499 0.419767 0.008833
v -1.000000 0.371095 0.014722
v -1.000000 0.332427 -0.001472
v -0.985499 0.322431 0.008833
v -0.943688 0.398419 -0.066986
v -1.000000 0.398419 -0.066986
v -0.943688 0.371095 -0.078764
v -1.000000 0.371095 -0.078764
v -0.943688 0.343770 -0.066986
v -1.000000 0.343770 -0.066986
v -0.845491 0.371095 0.110416
v -0.887450 0.294738 0.036805
v -0.845491 0.265044 0.066250
v -0.887450 0.371095 0.067722
v -0.887450 0.447458 0.036805
v 0.793670 0.579832 -0.074346
v 0.793670 0.555689 -0.064041
v 0.809937 0.555689 -0.064041
v 0.809937 0.579832 -0.074346
v 0.793670 0.603977 -0.064041
v 0.809937 0.603977 -0.064041
v 0.730364 0.571014 0.044902
v 0.853515 0.613274 0.044902
v 0.751123 0.613274 0.044902
v 0.874273 0.571014 0.044902
v 0.730364 0.480827 0.044902
v 0.874273 0.480827 0.044902
v -0.516452 0.570462 0.015458
v -0.576445 0.555769 0.015458
v -0.516452 0.555769 0.015458
v -0.538535 0.602225 0.015458
v -0.576445 0.602225 0.015458
v -0.576445 0.493391 0.015458
v -0.516452 0.493391 0.015458
v -0.534560 0.554246 -0.027972
v -0.549208 0.589115 -0.037541
v -0.558925 0.554246 -0.027972
v -0.544277 0.589115 -0.037541
v 0.793670 0.543042 -0.016931
v 0.809937 0.484006 -0.016931
v 0.809937 0.543042 -0.016931
v 0.793670 0.484006 -0.016931
v 0.793670 0.547069 -0.007361
v 0.809937 0.579832 0.006625
v 0.793670 0.579832 0.006625
v 0.809937 0.612596 -0.007361
v 0.809937 0.547069 -0.007361
v 0.793670 0.612596 -0.007361
v -0.576445 0.555769 -0.071402
v -0.516452 0.570462 -0.071402
v -0.538535 0.602225 -0.071402
v -0.516452 0.555769 -0.071402
v -0.576445 0.602225 -0.071402
v 0.874273 0.480827 -0.093485
v 0.730364 0.571014 -0.093485
v 0.730364 0.480827 -0.093485
v 0.874273 0.571014 -0.093485
v 0.751123 0.613274 -0.093485
v 0.853515 0.613274 -0.093485
v -0.845491 0.371095 0.110416
v -0.618108 0.304809 0.026500
v -0.618108 0.371095 0.053735
v -0.618108 0.437381 0.026500
v -0.845491 0.265044 0.066250
v -0.845491 0.477153 0.066250
v -0.985499 0.371095 0.028708
v -0.887450 0.415343 0.004417
v -0.985499 0.419767 0.008833
v -0.887450 0.326855 0.004417
v -0.985499 0.322431 0.008833
v -0.887450 0.371095 0.022819
vt 52.0046 -27.0043 
vt 52.0093 -27.0089 
vt 52.0066 -27.0024 
vt 52.0066 -27.0089 
vt 52 -27.0024 
vt 52.0046 -27.0136 
vt 52 -26.9996 
vt 52.0066 -27.0155 
vt 51.9934 -27.0024 
vt 52 -27.0155 
vt 51.9954 -27.0043 
vt 52 -27.0182 
vt 51.9934 -27.0089 
vt 51.9934 -27.0155 
vt 51.9907 -27.0089 
vt 51.9954 -27.0136 
vt 52 -27.0024 
vt 52.0066 -27.0089 
vt 52.0046 -27.0043 
vt 51.9954 -27.0043 
vt 51.9954 -27.0136 
vt 51.9934 -27.0089 
vt 52 -27.0155 
vt 52.0046 -27.0136 
vt 51.9894 -27.0089 
vt 51.987 -27.0219 
vt 51.9925 -27.0164 
vt 51.9817 -27.0089 
vt 52 -27.0273 
vt 51.987 -26.996 
vt 52 -27.0195 
vt 51.9925 -27.0014 
vt 52.0075 -27.0164 
vt 52 -26.9906 
vt 52.013 -27.0219 
vt 52 -26.9983 
vt 52.0183 -27.0089 
vt 52.0075 -27.0014 
vt 52.0106 -27.0089 
vt 52.013 -26.996 
vt 52 -27.0273 
vt 52.018 -27.0269 
vt 52.013 -27.0219 
vt 52.013 -26.996 
vt 52.0255 -27.0089 
vt 52.018 -26.9909 
vt 52 -26.9906 
vt 51.982 -27.0269 
vt 51.987 -27.0219 
vt 51.9745 -27.0089 
vt 51.9817 -27.0089 
vt 51.982 -26.9909 
vt 51.987 -26.996 
vt 51.9947 -26.9697 
vt 51.9906 -26.9776 
vt 51.9947 -26.9776 
vt 51.9906 -26.9697 
vt 51.9947 -26.9882 
vt 51.9906 -26.9882 
vt 52 -26.9776 
vt 52 -26.9882 
vt 52.0053 -26.9882 
vt 52.0053 -26.9776 
vt 52.0094 -26.9776 
vt 52.0094 -26.9882 
vt 52.0053 -26.9697 
vt 52.0094 -26.9697 
vt 51.9996 -26.9719 
vt 52.0021 -26.9778 
vt 52.0004 -26.9719 
vt 51.9979 -26.9778 
vt 52.009 -26.9678 
vt 52.0145 -26.975 
vt 52.0145 -26.9678 
vt 52.009 -26.975 
vt 52.0145 -26.9903 
vt 52.009 -26.9903 
vt 51.9855 -26.975 
vt 51.991 -26.9678 
vt 51.9855 -26.9678 
vt 51.991 -26.975 
vt 51.9855 -26.9903 
vt 51.991 -26.9903 
vt 52.0125 -26.9816 
vt 51.9875 -26.9816 
vt 52.0125 -26.9901 
vt 51.9875 -26.9901 
vt 52 -26.9805 
vt 52.0039 -26.9897 
vt 52.0039 -26.9797 
vt 51.9961 -26.9897 
vt 51.9961 -26.9797 
vt 51.9959 -26.9694 
vt 52 -26.9656 
vt 51.9944 -26.9679 
vt 51.9921 -26.9735 
vt 52 -26.9677 
vt 51.9942 -26.9735 
vt 52.0041 -26.9694 
vt 51.9959 -26.9776 
vt 52.0056 -26.9679 
vt 51.9944 -26.979 
vt 52.0079 -26.9735 
vt 52 -26.9813 
vt 52.0058 -26.9735 
vt 52 -26.9793 
vt 52.0041 -26.9776 
vt 52.0056 -26.979 
vt 51.8408 -26.9934 
vt 51.8408 -27 
vt 51.8433 -27 
vt 51.8408 -27.0066 
vt 51.8433 -26.9917 
vt 51.8433 -27.0083 
vt 51.8504 -27.0046 
vt 51.8408 -27 
vt 51.8408 -27.0046 
vt 51.8408 -26.9954 
vt 51.8504 -27 
vt 51.8504 -26.9954 
vt 51.8671 -27.018 
vt 51.8671 -27 
vt 51.8599 -27 
vt 51.8671 -26.982 
vt 51.9182 -27.0004 
vt 51.9182 -26.9996 
vt 51.9174 -27.0004 
vt 51.9174 -26.9996 
vt 52.1482 -27.0041 
vt 52.1454 -27 
vt 52.1454 -27.0041 
vt 52.1482 -27 
vt 52.1454 -26.9959 
vt 52.1482 -26.9959 
vt 52.1382 -27.009 
vt 52.1556 -27.0145 
vt 52.1556 -27.009 
vt 52.1382 -27.0145 
vt 52.1556 -26.9855 
vt 52.1382 -26.991 
vt 52.1556 -26.991 
vt 52.1382 -26.9855 
vt 51.9229 -27 
vt 51.9128 -26.9947 
vt 51.9128 -27 
vt 51.9229 -26.9947 
vt 51.9128 -27.0053 
vt 51.9229 -27.0053 
vt 52.1482 -27 
vt 52.1482 -26.9961 
vt 52.1454 -27 
vt 52.1454 -26.9961 
vt 52.1482 -27.0039 
vt 52.1482 -27 
vt 52.1454 -27.0039 
vt 52.1454 -27 
vt 52.1385 -27.0125 
vt 52.1562 -26.9875 
vt 52.1385 -26.9875 
vt 52.1562 -27.0125 
vt 52.1482 -27.0056 
vt 52.1482 -27 
vt 52.1454 -27.0056 
vt 52.1454 -27 
vt 52.1482 -26.9944 
vt 52.1454 -26.9944 
vt 51.9128 -26.9906 
vt 51.9192 -26.9947 
vt 51.9192 -26.9906 
vt 51.9128 -26.9947 
vt 51.9192 -27.0053 
vt 51.9128 -27.0094 
vt 51.9192 -27.0094 
vt 51.9128 -27.0053 
vt 51.9057 -27.0113 
vt 51.8671 -27 
vt 51.8671 -27.018 
vt 51.9057 -27 
vt 51.9057 -26.9887 
vt 51.8671 -26.982 
vt 51.8433 -27 
vt 51.8599 -26.9925 
vt 51.8433 -26.9917 
vt 51.8599 -27 
vt 51.8599 -27.0075 
vt 51.8433 -27.0083 
vt 52.1567 -27.0089 
vt 52.1592 -27.0024 
vt 52.1567 -27.0007 
vt 52.1592 -27.0089 
vt 52.1592 -27.0155 
vt 52.1567 -27.0172 
vt 52.1592 -27.0043 
vt 52.1496 -27.0043 
vt 52.1592 -27.0089 
vt 52.1496 -27.0089 
vt 52.1592 -27.0136 
vt 52.1496 -27.0136 
vt 51.8546 -26.9735 
vt 51.8518 -26.9776 
vt 51.8546 -26.9776 
vt 51.8518 -26.9735 
vt 51.8546 -26.9694 
vt 51.8518 -26.9694 
vt 51.8653 -26.9903 
vt 51.8409 -26.975 
vt 51.8409 -26.9903 
vt 51.8653 -26.975 
vt 51.8444 -26.9678 
vt 51.8618 -26.9678 
vt 52.0872 -26.9776 
vt 52.0771 -26.9751 
vt 52.0771 -26.9776 
vt 52.0808 -26.9697 
vt 52.0872 -26.9697 
vt 52.0872 -26.9882 
vt 52.0771 -26.9882 
vt 52.0818 -26.9719 
vt 52.0801 -26.9778 
vt 52.0843 -26.9778 
vt 52.0826 -26.9719 
vt 51.8518 -26.9797 
vt 51.8518 -26.9897 
vt 51.8546 -26.9897 
vt 51.8546 -26.9797 
vt 51.8546 -26.9735 
vt 51.8518 -26.979 
vt 51.8546 -26.979 
vt 51.8518 -26.9735 
vt 51.8546 -26.9679 
vt 51.8518 -26.9679 
vt 52.0771 -26.9751 
vt 52.0872 -26.9776 
vt 52.0808 -26.9697 
vt 52.0872 -26.9697 
vt 52.0771 -26.9776 
vt 51.8618 -26.9678 
vt 51.8409 -26.975 
vt 51.8653 -26.975 
vt 51.8444 -26.9678 
vt 51.8409 -26.9903 
vt 51.8653 -26.9903 
vt 52.0943 -27.0202 
vt 52.1329 -27.0269 
vt 52.1329 -27.0089 
vt 52.0943 -26.9977 
vt 52.1329 -26.9909 
vt 52.0943 -27.0089 
vt 52.1567 -27.0089 
vt 52.1401 -27.0014 
vt 52.1401 -27.0089 
vt 52.1401 -27.0164 
vt 52.1567 -27.0007 
vt 52.1567 -27.0172 
vt 51.9875 -26.9901 
vt 52.0125 -26.9901 
vt 51.9875 -26.9816 
vt 52.0125 -26.9816 
vt 51.9961 -26.9897 
vt 52 -26.9805 
vt 51.9961 -26.9797 
vt 52.0039 -26.9897 
vt 52.0039 -26.9797 
vt 51.9959 -26.9694 
vt 52 -26.9656 
vt 51.9944 -26.9679 
vt 51.9921 -26.9735 
vt 52 -26.9677 
vt 51.9942 -26.9735 
vt 52.0041 -26.9694 
vt 51.9959 -26.9776 
vt 52.0056 -26.9679 
vt 51.9944 -26.979 
vt 52.0079 -26.9735 
vt 52 -26.9793 
vt 52.0058 -26.9735 
vt 52 -26.9813 
vt 52.0041 -26.9776 
vt 52.0056 -26.979 
vt 51.9855 -26.975 
vt 51.9855 -26.9903 
vt 51.991 -26.9903 
vt 51.991 -26.975 
vt 51.9855 -26.9678 
vt 51.991 -26.9678 
vt 52.0145 -26.9903 
vt 52.0145 -26.975 
vt 52.009 -26.9903 
vt 52.009 -26.975 
vt 52.0145 -26.9678 
vt 52.009 -26.9678 
vt 52.0053 -26.9697 
vt 52.0053 -26.9751 
vt 52.0094 -26.9697 
vt 52.0094 -26.9751 
vt 52.0053 -26.9776 
vt 52.0094 -26.9776 
vt 52.0094 -26.9882 
vt 52.0053 -26.9882 
vt 52 -26.9882 
vt 52 -26.9776 
vt 51.9947 -26.9776 
vt 51.9947 -26.9882 
vt 51.9906 -26.9882 
vt 51.9906 -26.9776 
vt 51.9906 -26.9751 
vt 51.9947 -26.9751 
vt 51.9906 -26.9697 
vt 51.9947 -26.9697 
vt 51.9996 -26.9719 
vt 51.9979 -26.9778 
vt 52.0021 -26.9778 
vt 52.0004 -26.9719 
vt 52.1567 -27 
vt 52.1592 -26.9934 
vt 52.1567 -26.9917 
vt 52.1592 -27.0066 
vt 52.1567 -27.0083 
vt 52.1592 -27 
vt 52.1592 -27 
vt 52.1496 -27 
vt 52.1592 -27.0046 
vt 52.1496 -27.0046 
vt 52.1496 -26.9954 
vt 52.1592 -26.9954 
vt 52.1329 -27.018 
vt 52.1401 -27 
vt 52.1329 -27 
vt 52.1329 -26.982 
vt 51.8546 -27 
vt 51.8518 -27.0041 
vt 51.8546 -27.0041 
vt 51.8518 -27 
vt 51.8546 -26.9959 
vt 51.8518 -26.9959 
vt 51.8546 -27 
vt 51.8518 -27.0056 
vt 51.8546 -27.0056 
vt 51.8518 -27 
vt 51.8546 -26.9944 
vt 51.8518 -26.9944 
vt 52.0943 -27.0113 
vt 52.1329 -27.018 
vt 52.1329 -27 
vt 52.0943 -27 
vt 52.0943 -26.9887 
vt 52.1329 -26.982 
vt 52.1401 -26.9925 
vt 52.1567 -27 
vt 52.1567 -26.9917 
vt 52.1401 -27 
vt 52.1401 -27.0075 
vt 52.1567 -27.0083 
vt 51.8408 -27.0024 
vt 51.8433 -27.0089 
vt 51.8433 -27.0007 
vt 51.8408 -27.0089 
vt 51.8408 -27.0155 
vt 51.8433 -27.0172 
vt 51.8504 -27.0043 
vt 51.8408 -27.0043 
vt 51.8504 -27.0089 
vt 51.8408 -27.0089 
vt 51.8504 -27.0136 
vt 51.8408 -27.0136 
vt 51.8671 -27.0089 
vt 51.8599 -27.0219 
vt 51.8671 -27.0269 
vt 51.8599 -27.0089 
vt 51.8599 -26.996 
vt 52.1454 -26.9735 
vt 52.1454 -26.9776 
vt 52.1482 -26.9776 
vt 52.1482 -26.9735 
vt 52.1454 -26.9694 
vt 52.1482 -26.9694 
vt 52.1347 -26.975 
vt 52.1556 -26.9678 
vt 52.1382 -26.9678 
vt 52.1591 -26.975 
vt 52.1347 -26.9903 
vt 52.1591 -26.9903 
vt 51.9229 -26.9751 
vt 51.9128 -26.9776 
vt 51.9229 -26.9776 
vt 51.9192 -26.9697 
vt 51.9128 -26.9697 
vt 51.9128 -26.9882 
vt 51.9229 -26.9882 
vt 51.9199 -26.9778 
vt 51.9174 -26.9719 
vt 51.9157 -26.9778 
vt 51.9182 -26.9719 
vt 52.1454 -26.9797 
vt 52.1482 -26.9897 
vt 52.1482 -26.9797 
vt 52.1454 -26.9897 
vt 52.1454 -26.979 
vt 52.1482 -26.9735 
vt 52.1454 -26.9735 
vt 52.1482 -26.9679 
vt 52.1482 -26.979 
vt 52.1454 -26.9679 
vt 51.9128 -26.9776 
vt 51.9229 -26.9751 
vt 51.9192 -26.9697 
vt 51.9229 -26.9776 
vt 51.9128 -26.9697 
vt 52.1591 -26.9903 
vt 52.1347 -26.975 
vt 52.1347 -26.9903 
vt 52.1591 -26.975 
vt 52.1382 -26.9678 
vt 52.1556 -26.9678 
vt 51.8671 -27.0089 
vt 51.9057 -27.0202 
vt 51.9057 -27.0089 
vt 51.9057 -26.9977 
vt 51.8671 -27.0269 
vt 51.8671 -26.9909 
vt 51.8433 -27.0089 
vt 51.8599 -27.0014 
vt 51.8433 -27.0007 
vt 51.8599 -27.0164 
vt 51.8433 -27.0172 
vt 51.8599 -27.0089 
vn -1.0000 0.0000 -0.0000
vn -1.0000 0.0000 -0.0000
vn -1.0000 0.0000 -0.0000
vn -1.0000 0.0000 -0.0000
vn -1.0000 0.0000 -0.0000
vn -1.0000 0.0000 -0.0000
vn -1.0000 0.0000 -0.0000
vn -1.0000 0.0000 -0.0000
vn -1.0000 0.0000 -0.0000
vn -1.0000 0.0000 -0.0000
vn -1.0000 0.0000 -0.0000
vn -1.0000 0.0000 -0.0000
vn -1.0000 0.0000 -0.0000
vn -1.0000 0.0000 -0.0000
vn -1.0000 0.0000 -0.0000
vn -1.0000 0.0000 -0.0000
vn -0.6299 -0.7795 -0.0000
vn -0.6299 0.0000 -0.7795
vn -0.6299 -0.5512 -0.5512
vn -0.6299 -0.5512 0.5512
vn -0.6299 0.5512 0.5512
vn -0.6299 0.0000 0.7795
vn -0.6299 0.7795 -0.0000
vn -0.6299 0.5512 -0.5512
vn -1.0000 0.0000 -0.0000
vn -1.0000 0.0000 -0.0000
vn -1.0000 0.0000 -0.0000
vn -1.0000 0.0000 -0.0000
vn -1.0000 0.0000 -0.0000
vn -1.0000 0.0000 -0.0000
vn -1.0000 0.0000 -0.0000
vn -1.0000 0.0000 -0.0000
vn -1.0000 0.0000 -0.0000
vn -1.0000 0.0000 -0.0000
vn -1.0000 0.0000 -0.0000
vn -1.0000 0.0000 -0.0000
vn -1.0000 0.0000 -0.0000
vn -1.0000 0.0000 -0.0000
vn -1.0000 0.0000 -0.0000
vn -1.0000 0.0000 -0.0000
vn -0.7087 -0.7087 -0.0000
vn -0.7087 -0.4961 0.4961
vn -0.7087 -0.4961 0.4961
vn -0.7087 0.4961 0.4961
vn -0.7087 0.0000 0.7087
vn -0.7087 0.4961 0.4961
vn -0.7087 0.7087 -0.0000
vn -0.7087 -0.4961 -0.4961
vn -0.7087 -0.4961 -0.4961
vn -0.7087 0.0000 -0.7087
vn -0.7087 0.0000 -0.7087
vn -0.7087 0.4961 -0.4961
vn -0.7087 0.4961 -0.4961
vn -1.0000 0.0000 -0.0000
vn -1.0000 0.0000 -0.0000
vn -1.0000 0.0000 -0.0000
vn -1.0000 0.0000 -0.0000
vn -1.0000 0.0000 -0.0000
vn -1.0000 0.0000 -0.0000
vn -1.0000 0.0000 -0.0000
vn -1.0000 0.0000 -0.0000
vn -1.0000 0.0000 -0.0000
vn -1.0000 0.0000 -0.0000
vn -1.0000 0.0000 -0.0000
vn -1.0000 0.0000 -0.0000
vn -1.0000 0.0000 -0.0000
vn -1.0000 0.0000 -0.0000
vn -0.9606 0.2677 -0.0000
vn -0.9606 0.2677 -0.0000
vn -0.9606 0.2677 -0.0000
vn -0.9606 0.2677 -0.0000
vn -0.5276 0.8504 -0.0000
vn -0.9764 0.2283 -0.0000
vn -0.5276 0.8504 -0.0000
vn -0.9764 0.2283 -0.0000
vn -1.0000 0.0000 -0.0000
vn -1.0000 0.0000 -0.0000
vn -0.9764 0.2283 -0.0000
vn -0.5276 0.8504 -0.0000
vn -0.5276 0.8504 -0.0000
vn -0.9764 0.2283 -0.0000
vn -1.0000 0.0000 -0.0000
vn -1.0000 0.0000 -0.0000
vn -0.9449 0.3307 -0.0000
vn -0.9449 0.3307 -0.0000
vn -0.9449 0.3307 -0.0000
vn -0.9449 0.3307 -0.0000
vn -1.0000 0.0000 -0.0000
vn -1.0000 0.0000 -0.0000
vn -1.0000 0.0000 -0.0000
vn -1.0000 0.0000 -0.0000
vn -1.0000 0.0000 -0.0000
vn -1.0000 0.0000 -0.0000
vn -1.0000 0.0000 -0.0000
vn -1.0000 0.0000 -0.0000
vn -1.0000 0.0000 -0.0000
vn -1.0000 0.0000 -0.0000
vn -1.0000 0.0000 -0.0000
vn -1.0000 0.0000 -0.0000
vn -1.0000 0.0000 -0.0000
vn -1.0000 0.0000 -0.0000
vn -1.0000 0.0000 -0.0000
vn -1.0000 0.0000 -0.0000
vn -1.0000 0.0000 -0.0000
vn -1.0000 0.0000 -0.0000
vn -1.0000 0.0000 -0.0000
vn -1.0000 0.0000 -0.0000
vn -1.0000 0.0000 -0.0000
vn -0.6929 0.5039 -0.5039
vn -0.6929 0.7165 -0.0000
vn -0.6929 0.7165 -0.0000
vn -0.6929 0.5039 0.5039
vn -0.6929 0.5039 -0.5039
vn -0.6929 0.5039 0.5039
vn -0.6299 0.5512 -0.5512
vn 0.0000 1.0000 -0.0000
vn 0.0000 0.7087 -0.7087
vn 0.0000 0.7087 0.7087
vn -0.6299 0.7795 -0.0000
vn -0.6299 0.5512 0.5512
vn -0.7087 0.4961 0.4961
vn -0.7087 0.7087 -0.0000
vn -0.7087 0.7087 -0.0000
vn -0.7087 0.4961 -0.4961
vn 0.0000 1.0000 -0.0000
vn 0.0000 1.0000 -0.0000
vn 0.0000 1.0000 -0.0000
vn 0.0000 1.0000 -0.0000
vn 0.0000 0.7087 -0.7087
vn 0.0000 1.0000 -0.0000
vn 0.0000 0.7087 -0.7087
vn 0.0000 1.0000 -0.0000
vn 0.0000 0.7087 0.7087
vn 0.0000 0.7087 0.7087
vn -0.5276 0.8504 -0.0000
vn 0.5276 0.8504 -0.0000
vn 0.5276 0.8504 -0.0000
vn -0.5276 0.8504 -0.0000
vn 0.5276 0.8504 -0.0000
vn -0.5276 0.8504 -0.0000
vn 0.5276 0.8504 -0.0000
vn -0.5276 0.8504 -0.0000
vn 0.0000 1.0000 -0.0000
vn 0.0000 1.0000 -0.0000
vn 0.0000 1.0000 -0.0000
vn 0.0000 1.0000 -0.0000
vn 0.0000 1.0000 -0.0000
vn 0.0000 1.0000 -0.0000
vn 0.0000 0.9843 0.1968
vn 0.0000 0.9843 0.1968
vn 0.0000 0.9843 0.1968
vn 0.0000 0.9843 0.1968
vn 0.0000 0.9843 -0.1968
vn 0.0000 0.9843 -0.1968
vn 0.0000 0.9843 -0.1968
vn 0.0000 0.9843 -0.1968
vn 0.0000 1.0000 -0.0000
vn 0.0000 1.0000 -0.0000
vn 0.0000 1.0000 -0.0000
vn 0.0000 1.0000 -0.0000
vn 0.0000 0.7087 0.7087
vn 0.0000 1.0000 -0.0000
vn 0.0000 0.7087 0.7087
vn 0.0000 1.0000 -0.0000
vn 0.0000 0.7087 -0.7087
vn 0.0000 0.7087 -0.7087
vn 0.0000 1.0000 -0.0000
vn 0.4646 0.8898 -0.0000
vn 0.4646 0.8898 -0.0000
vn 0.0000 1.0000 -0.0000
vn 0.4646 0.8898 -0.0000
vn 0.0000 1.0000 -0.0000
vn 0.4646 0.8898 -0.0000
vn 0.0000 1.0000 -0.0000
vn 0.2362 0.6850 0.6850
vn 0.2362 0.9685 -0.0000
vn 0.2362 0.6850 0.6850
vn 0.2362 0.9685 -0.0000
vn 0.2362 0.6850 -0.6850
vn 0.2362 0.6850 -0.6850
vn 0.0630 1.0000 -0.0000
vn 0.0630 0.7087 -0.7087
vn 0.0630 0.7087 -0.7087
vn 0.0630 1.0000 -0.0000
vn 0.0630 0.7087 0.7087
vn 0.0630 0.7087 0.7087
vn -0.6929 0.0000 -0.7165
vn -0.6929 0.5039 -0.5039
vn -0.6929 0.5039 -0.5039
vn -0.6929 0.0000 -0.7165
vn -0.6929 -0.5039 -0.5039
vn -0.6929 -0.5039 -0.5039
vn 0.0000 -0.7087 -0.7087
vn -0.6299 -0.5512 -0.5512
vn 0.0000 0.0000 -1.0000
vn -0.6299 0.0000 -0.7795
vn 0.0000 0.7087 -0.7087
vn -0.6299 0.5512 -0.5512
vn 0.0000 0.0000 -1.0000
vn 0.0000 0.7087 -0.7087
vn 0.0000 0.7087 -0.7087
vn 0.0000 0.0000 -1.0000
vn 0.0000 -0.7087 -0.7087
vn 0.0000 -0.7087 -0.7087
vn 0.0000 0.0000 -1.0000
vn 0.0000 0.0000 -1.0000
vn 0.0000 0.0000 -1.0000
vn 0.0000 0.0000 -1.0000
vn 0.0000 0.0000 -1.0000
vn 0.0000 0.0000 -1.0000
vn 0.0000 0.0000 -1.0000
vn 0.0000 0.0000 -1.0000
vn 0.0000 0.0000 -1.0000
vn 0.0000 0.0000 -1.0000
vn 0.0000 0.0000 -1.0000
vn 0.0000 0.0000 -1.0000
vn 0.0000 0.0000 -1.0000
vn 0.0000 0.2677 -0.9606
vn 0.0000 0.2677 -0.9606
vn 0.0000 0.2677 -0.9606
vn 0.0000 0.2677 -0.9606
vn 0.0000 0.0000 -1.0000
vn 0.0000 0.0000 -1.0000
vn 0.0000 0.0000 -1.0000
vn 0.0000 0.0000 -1.0000
vn 0.0000 0.0000 -1.0000
vn 0.0000 -0.7087 -0.7087
vn 0.0000 -0.7087 -0.7087
vn 0.0000 0.0000 -1.0000
vn 0.0000 0.7087 -0.7087
vn 0.0000 0.7087 -0.7087
vn 0.0000 0.0000 -1.0000
vn 0.0000 0.0000 -1.0000
vn 0.0000 0.0000 -1.0000
vn 0.0000 0.0000 -1.0000
vn 0.0000 0.0000 -1.0000
vn 0.0000 0.0000 -1.0000
vn 0.0000 0.0000 -1.0000
vn 0.0000 0.0000 -1.0000
vn 0.0000 0.0000 -1.0000
vn 0.0000 0.0000 -1.0000
vn 0.0000 0.0000 -1.0000
vn 0.2362 -0.6850 -0.6850
vn 0.2362 -0.6850 -0.6850
vn 0.2362 0.0000 -0.9685
vn 0.2362 0.6850 -0.6850
vn 0.2362 0.6850 -0.6850
vn 0.2362 0.0000 -0.9685
vn 0.0630 0.0000 -1.0000
vn 0.0630 0.7087 -0.7087
vn 0.0630 0.0000 -1.0000
vn 0.0630 -0.7087 -0.7087
vn 0.0630 0.7087 -0.7087
vn 0.0630 -0.7087 -0.7087
vn 0.9449 0.3307 -0.0000
vn 0.9449 0.3307 -0.0000
vn 0.9449 0.3307 -0.0000
vn 0.9449 0.3307 -0.0000
vn 1.0000 0.0000 -0.0000
vn 1.0000 0.0000 -0.0000
vn 1.0000 0.0000 -0.0000
vn 1.0000 0.0000 -0.0000
vn 1.0000 0.0000 -0.0000
vn 1.0000 0.0000 -0.0000
vn 1.0000 0.0000 -0.0000
vn 1.0000 0.0000 -0.0000
vn 1.0000 0.0000 -0.0000
vn 1.0000 0.0000 -0.0000
vn 1.0000 0.0000 -0.0000
vn 1.0000 0.0000 -0.0000
vn 1.0000 0.0000 -0.0000
vn 1.0000 0.0000 -0.0000
vn 1.0000 0.0000 -0.0000
vn 1.0000 0.0000 -0.0000
vn 1.0000 0.0000 -0.0000
vn 1.0000 0.0000 -0.0000
vn 1.0000 0.0000 -0.0000
vn 1.0000 0.0000 -0.0000
vn 1.0000 0.0000 -0.0000
vn 0.9764 0.2283 -0.0000
vn 1.0000 0.0000 -0.0000
vn 1.0000 0.0000 -0.0000
vn 0.9764 0.2283 -0.0000
vn 0.5276 0.8504 -0.0000
vn 0.5276 0.8504 -0.0000
vn 1.0000 0.0000 -0.0000
vn 0.9764 0.2283 -0.0000
vn 1.0000 0.0000 -0.0000
vn 0.9764 0.2283 -0.0000
vn 0.5276 0.8504 -0.0000
vn 0.5276 0.8504 -0.0000
vn 0.4646 0.8898 -0.0000
vn 0.9528 0.2992 -0.0000
vn 0.4646 0.8898 -0.0000
vn 0.9528 0.2992 -0.0000
vn 1.0000 0.0000 -0.0000
vn 1.0000 0.0000 -0.0000
vn 1.0000 0.0000 -0.0000
vn 1.0000 0.0000 -0.0000
vn 1.0000 0.0000 -0.0000
vn 1.0000 0.0000 -0.0000
vn 1.0000 0.0000 -0.0000
vn 1.0000 0.0000 -0.0000
vn 1.0000 0.0000 -0.0000
vn 1.0000 0.0000 -0.0000
vn 0.9528 0.2992 -0.0000
vn 0.9528 0.2992 -0.0000
vn 0.4646 0.8898 -0.0000
vn 0.4646 0.8898 -0.0000
vn 0.9606 0.2677 -0.0000
vn 0.9606 0.2677 -0.0000
vn 0.9606 0.2677 -0.0000
vn 0.9606 0.2677 -0.0000
vn -0.6929 -0.7165 -0.0000
vn -0.6929 -0.5039 -0.5039
vn -0.6929 -0.5039 -0.5039
vn -0.6929 -0.5039 0.5039
vn -0.6929 -0.5039 0.5039
vn -0.6929 -0.7165 -0.0000
vn 0.0000 -1.0000 -0.0000
vn -0.6299 -0.7795 -0.0000
vn 0.0000 -0.7087 -0.7087
vn -0.6299 -0.5512 -0.5512
vn -0.6299 -0.5512 0.5512
vn 0.0000 -0.7087 0.7087
vn -0.7087 -0.4961 0.4961
vn -0.7087 -0.7087 -0.0000
vn -0.7087 -0.7087 -0.0000
vn -0.7087 -0.4961 -0.4961
vn 0.0000 -1.0000 -0.0000
vn 0.0000 -0.7087 -0.7087
vn 0.0000 -0.7087 -0.7087
vn 0.0000 -1.0000 -0.0000
vn 0.0000 -0.7087 0.7087
vn 0.0000 -0.7087 0.7087
vn 0.0000 -1.0000 -0.0000
vn 0.0000 -0.7087 0.7087
vn 0.0000 -0.7087 0.7087
vn 0.0000 -1.0000 -0.0000
vn 0.0000 -0.7087 -0.7087
vn 0.0000 -0.7087 -0.7087
vn 0.2362 -0.6850 0.6850
vn 0.2362 -0.6850 0.6850
vn 0.2362 -0.9685 -0.0000
vn 0.2362 -0.9685 -0.0000
vn 0.2362 -0.6850 -0.6850
vn 0.2362 -0.6850 -0.6850
vn 0.0630 -0.7087 -0.7087
vn 0.0630 -1.0000 -0.0000
vn 0.0630 -0.7087 -0.7087
vn 0.0630 -1.0000 -0.0000
vn 0.0630 -0.7087 0.7087
vn 0.0630 -0.7087 0.7087
vn -0.6929 0.5039 0.5039
vn -0.6929 0.0000 0.7165
vn -0.6929 0.5039 0.5039
vn -0.6929 0.0000 0.7165
vn -0.6929 -0.5039 0.5039
vn -0.6929 -0.5039 0.5039
vn -0.6299 -0.5512 0.5512
vn 0.0000 -0.7087 0.7087
vn -0.6299 0.0000 0.7795
vn 0.0000 0.0000 1.0000
vn -0.6299 0.5512 0.5512
vn 0.0000 0.7087 0.7087
vn -0.7087 0.0000 0.7087
vn -0.7087 -0.4961 0.4961
vn -0.7087 -0.4961 0.4961
vn -0.7087 0.0000 0.7087
vn -0.7087 0.4961 0.4961
vn 0.0000 0.0000 1.0000
vn 0.0000 0.7087 0.7087
vn 0.0000 0.7087 0.7087
vn 0.0000 0.0000 1.0000
vn 0.0000 -0.7087 0.7087
vn 0.0000 -0.7087 0.7087
vn 0.0000 0.0000 1.0000
vn 0.0000 0.0000 1.0000
vn 0.0000 0.0000 1.0000
vn 0.0000 0.0000 1.0000
vn 0.0000 0.0000 1.0000
vn 0.0000 0.0000 1.0000
vn 0.0000 0.0000 1.0000
vn 0.0000 0.0000 1.0000
vn 0.0000 0.0000 1.0000
vn 0.0000 0.0000 1.0000
vn 0.0000 0.0000 1.0000
vn 0.0000 0.0000 1.0000
vn 0.0000 0.0000 1.0000
vn 0.0000 0.2677 0.9606
vn 0.0000 0.2677 0.9606
vn 0.0000 0.2677 0.9606
vn 0.0000 0.2677 0.9606
vn 0.0000 0.0000 1.0000
vn 0.0000 0.0000 1.0000
vn 0.0000 0.0000 1.0000
vn 0.0000 0.0000 1.0000
vn 0.0000 -0.7087 0.7087
vn 0.0000 0.0000 1.0000
vn 0.0000 0.0000 1.0000
vn 0.0000 0.7087 0.7087
vn 0.0000 -0.7087 0.7087
vn 0.0000 0.7087 0.7087
vn 0.0000 0.0000 1.0000
vn 0.0000 0.0000 1.0000
vn 0.0000 0.0000 1.0000
vn 0.0000 0.0000 1.0000
vn 0.0000 0.0000 1.0000
vn 0.0000 0.0000 1.0000
vn 0.0000 0.0000 1.0000
vn 0.0000 0.0000 1.0000
vn 0.0000 0.0000 1.0000
vn 0.0000 0.0000 1.0000
vn 0.0000 0.0000 1.0000
vn 0.2362 0.0000 0.9685
vn 0.2362 -0.6850 0.6850
vn 0.2362 0.0000 0.9685
vn 0.2362 0.6850 0.6850
vn 0.2362 -0.6850 0.6850
vn 0.2362 0.6850 0.6850
vn 0.0630 0.0000 1.0000
vn 0.0630 0.7087 0.7087
vn 0.0630 0.7087 0.7087
vn 0.0630 -0.7087 0.7087
vn 0.0630 -0.7087 0.7087
vn 0.0630 0.0000 1.0000
usemtl Meshpart1Mtl
f 1/1/1 2/2/2 3/3/3
f 2/2/2 1/1/1 4/4/4
f 3/3/3 5/5/5 1/1/1
f 6/6/6 2/2/2 4/4/4
f 3/3/3 7/7/7 5/5/5
f 2/2/2 6/6/6 8/8/8
f 9/9/9 5/5/5 7/7/7
f 10/10/10 8/8/8 6/6/6
f 5/5/5 9/9/9 11/11/11
f 8/8/8 10/10/10 12/12/12
f 9/9/9 13/13/13 11/11/11
f 10/10/10 14/14/14 12/12/12
f 13/13/13 9/9/9 15/15/15
f 14/14/14 13/13/13 15/15/15
f 14/14/14 10/10/10 16/16/16
f 13/13/13 14/14/14 16/16/16
f 17/17/17 18/18/18 19/19/19
f 20/20/20 18/18/18 17/17/17
f 21/21/21 20/20/20 22/22/22
f 20/20/20 21/21/21 18/18/18
f 23/23/23 18/18/18 21/21/21
f 18/18/18 23/23/23 24/24/24
f 25/25/25 26/26/26 27/27/27
f 26/26/26 25/25/25 28/28/28
f 29/29/29 27/27/27 26/26/26
f 25/25/25 30/30/30 28/28/28
f 27/27/27 29/29/29 31/31/31
f 30/30/30 25/25/25 32/32/32
f 29/29/29 33/33/33 31/31/31
f 34/34/34 30/30/30 32/32/32
f 29/29/29 35/35/35 33/33/33
f 34/34/34 32/32/32 36/36/36
f 37/37/37 33/33/33 35/35/35
f 38/38/38 34/34/34 36/36/36
f 33/33/33 37/37/37 39/39/39
f 37/37/37 38/38/38 39/39/39
f 34/34/34 38/38/38 40/40/40
f 38/38/38 37/37/37 40/40/40
f 41/41/41 42/42/42 43/43/43
f 44/44/44 45/45/45 46/46/46
f 46/46/46 47/47/47 44/44/44
f 48/48/48 41/41/41 49/49/49
f 50/50/50 48/48/48 49/49/49
f 49/49/49 51/51/51 50/50/50
f 47/47/47 52/52/52 53/53/53
f 53/53/53 50/50/50 51/51/51
f 50/50/50 53/53/53 52/52/52
f 54/54/54 55/55/55 56/56/56
f 55/55/55 54/54/54 57/57/57
f 58/58/58 56/56/56 55/55/55
f 58/58/58 55/55/55 59/59/59
f 58/58/58 60/60/60 56/56/56
f 60/60/60 58/58/58 61/61/61
f 62/62/62 60/60/60 61/61/61
f 62/62/62 63/63/63 60/60/60
f 63/63/63 62/62/62 64/64/64
f 65/65/65 64/64/64 62/62/62
f 64/64/64 66/66/66 63/63/63
f 64/64/64 67/67/67 66/66/66
f 68/68/68 69/69/69 70/70/70
f 69/69/69 68/68/68 71/71/71
f 72/72/72 73/73/73 74/74/74
f 73/73/73 72/72/72 75/75/75
f 75/75/75 76/76/76 73/73/73
f 76/76/76 75/75/75 77/77/77
f 78/78/78 79/79/79 80/80/80
f 79/79/79 78/78/78 81/81/81
f 82/82/82 81/81/81 78/78/78
f 81/81/81 82/82/82 83/83/83
f 84/84/84 85/85/85 86/86/86
f 86/86/86 85/85/85 87/87/87
f 88/88/88 89/89/89 90/90/90
f 88/88/88 91/91/91 89/89/89
f 91/91/91 88/88/88 92/92/92
f 93/93/93 94/94/94 95/95/95
f 96/96/96 93/93/93 95/95/95
f 94/94/94 93/93/93 97/97/97
f 93/93/93 96/96/96 98/98/98
f 99/99/99 94/94/94 97/97/97
f 96/96/96 100/100/100 98/98/98
f 94/94/94 99/99/99 101/101/101
f 100/100/100 96/96/96 102/102/102
f 103/103/103 101/101/101 99/99/99
f 104/104/104 100/100/100 102/102/102
f 103/103/103 99/99/99 105/105/105
f 100/100/100 104/104/104 106/106/106
f 107/107/107 103/103/103 105/105/105
f 108/108/108 106/106/106 104/104/104
f 108/108/108 103/103/103 107/107/107
f 106/106/106 108/108/108 107/107/107
f 109/109/109 110/110/110 111/111/111
f 112/112/112 111/111/111 110/110/110
f 111/111/111 113/113/113 109/109/109
f 111/111/111 112/112/112 114/114/114
f 115/115/115 116/116/116 117/117/117
f 118/118/118 119/119/119 120/120/120
f 116/116/116 115/115/115 119/119/119
f 119/119/119 118/118/118 116/116/116
f 121/121/121 122/122/122 123/123/123
f 124/124/124 123/123/123 122/122/122
f 125/125/125 126/126/126 127/127/127
f 127/127/127 126/126/126 128/128/128
f 129/129/129 130/130/130 131/131/131
f 130/130/130 129/129/129 132/132/132
f 132/132/132 133/133/133 130/130/130
f 133/133/133 132/132/132 134/134/134
f 135/135/135 136/136/136 137/137/137
f 136/136/136 135/135/135 138/138/138
f 139/139/139 140/140/140 141/141/141
f 140/140/140 139/139/139 142/142/142
f 143/143/143 144/144/144 145/145/145
f 144/144/144 143/143/143 146/146/146
f 147/147/147 143/143/143 145/145/145
f 147/147/147 148/148/148 143/143/143
f 149/149/149 150/150/150 151/151/151
f 151/151/151 150/150/150 152/152/152
f 153/153/153 154/154/154 155/155/155
f 155/155/155 154/154/154 156/156/156
f 157/157/157 158/158/158 159/159/159
f 158/158/158 157/157/157 160/160/160
f 161/161/161 162/162/162 163/163/163
f 163/163/163 162/162/162 164/164/164
f 162/162/162 165/165/165 164/164/164
f 164/164/164 165/165/165 166/166/166
f 167/167/167 168/168/168 169/169/169
f 168/168/168 167/167/167 170/170/170
f 171/171/171 172/172/172 173/173/173
f 172/172/172 171/171/171 174/174/174
f 175/175/175 176/176/176 177/177/177
f 176/176/176 175/175/175 178/178/178
f 176/176/176 178/178/178 179/179/179
f 176/176/176 179/179/179 180/180/180
f 181/181/181 182/182/182 183/183/183
f 182/182/182 181/181/181 184/184/184
f 184/184/184 181/181/181 185/185/185
f 186/186/186 185/185/185 181/181/181
f 187/187/187 188/188/188 189/189/189
f 188/188/188 187/187/187 190/190/190
f 187/187/187 191/191/191 190/190/190
f 191/191/191 187/187/187 192/192/192
f 193/193/193 194/194/194 195/195/195
f 196/196/196 195/195/195 194/194/194
f 195/195/195 196/196/196 197/197/197
f 198/198/198 197/197/197 196/196/196
f 199/199/199 200/200/200 201/201/201
f 200/200/200 199/199/199 202/202/202
f 203/203/203 202/202/202 199/199/199
f 202/202/202 203/203/203 204/204/204
f 205/205/205 206/206/206 207/207/207
f 208/208/208 206/206/206 205/205/205
f 208/208/208 209/209/209 206/206/206
f 209/209/209 208/208/208 210/210/210
f 211/211/211 212/212/212 213/213/213
f 212/212/212 211/211/211 214/214/214
f 214/214/214 211/211/211 215/215/215
f 213/213/213 216/216/216 211/211/211
f 216/216/216 213/213/213 217/217/217
f 218/218/218 219/219/219 220/220/220
f 220/220/220 221/221/221 218/218/218
f 222/222/222 223/223/223 224/224/224
f 224/224/224 225/225/225 222/222/222
f 226/226/226 227/227/227 228/228/228
f 229/229/229 230/230/230 231/231/231
f 227/227/227 226/226/226 229/229/229
f 230/230/230 229/229/229 226/226/226
f 232/232/232 233/233/233 234/234/234
f 233/233/233 235/235/235 234/234/234
f 236/236/236 233/233/233 232/232/232
f 237/237/237 238/238/238 239/239/239
f 238/238/238 237/237/237 240/240/240
f 241/241/241 239/239/239 238/238/238
f 241/241/241 242/242/242 239/239/239
f 243/243/243 244/244/244 245/245/245
f 246/246/246 245/245/245 247/247/247
f 243/243/243 245/245/245 248/248/248
f 245/245/245 246/246/246 248/248/248
f 249/249/249 250/250/250 251/251/251
f 252/252/252 249/249/249 251/251/251
f 250/250/250 249/249/249 253/253/253
f 249/249/249 252/252/252 254/254/254
f 255/255/255 256/256/256 257/257/257
f 257/257/257 256/256/256 258/258/258
f 259/259/259 260/260/260 261/261/261
f 260/260/260 259/259/259 262/262/262
f 262/262/262 263/263/263 260/260/260
f 264/264/264 265/265/265 266/266/266
f 267/267/267 264/264/264 266/266/266
f 265/265/265 264/264/264 268/268/268
f 264/264/264 267/267/267 269/269/269
f 270/270/270 265/265/265 268/268/268
f 267/267/267 271/271/271 269/269/269
f 265/265/265 270/270/270 272/272/272
f 267/267/267 273/273/273 271/271/271
f 270/270/270 274/274/274 272/272/272
f 273/273/273 275/275/275 271/271/271
f 274/274/274 270/270/270 276/276/276
f 275/275/275 273/273/273 277/277/277
f 278/278/278 274/274/274 276/276/276
f 277/277/277 278/278/278 275/275/275
f 274/274/274 278/278/278 279/279/279
f 278/278/278 277/277/277 279/279/279
f 280/280/280 281/281/281 282/282/282
f 280/280/280 282/282/282 283/283/283
f 280/280/280 283/283/283 284/284/284
f 284/284/284 283/283/283 285/285/285
f 286/286/286 287/287/287 288/288/288
f 289/289/289 288/288/288 287/287/287
f 290/290/290 289/289/289 287/287/287
f 289/289/289 290/290/290 291/291/291
f 292/292/292 293/293/293 294/294/294
f 293/293/293 295/295/295 294/294/294
f 293/293/293 296/296/296 295/295/295
f 296/296/296 297/297/297 295/295/295
f 296/296/296 298/298/298 297/297/297
f 298/298/298 296/296/296 299/299/299
f 296/296/296 300/300/300 299/299/299
f 300/300/300 296/296/296 301/301/301
f 302/302/302 300/300/300 301/301/301
f 302/302/302 303/303/303 300/300/300
f 302/302/302 304/304/304 303/303/303
f 304/304/304 302/302/302 305/305/305
f 306/306/306 305/305/305 302/302/302
f 306/306/306 302/302/302 307/307/307
f 308/308/308 306/306/306 307/307/307
f 308/308/308 307/307/307 309/309/309
f 310/310/310 311/311/311 312/312/312
f 310/310/310 312/312/312 313/313/313
f 314/314/314 315/315/315 316/316/316
f 317/317/317 314/314/314 318/318/318
f 315/315/315 314/314/314 319/319/319
f 314/314/314 317/317/317 319/319/319
f 320/320/320 321/321/321 322/322/322
f 323/323/323 322/322/322 321/321/321
f 321/321/321 320/320/320 324/324/324
f 325/325/325 324/324/324 320/320/320
f 326/326/326 327/327/327 328/328/328
f 327/327/327 329/329/329 328/328/328
f 330/330/330 331/331/331 332/332/332
f 331/331/331 330/330/330 333/333/333
f 334/334/334 333/333/333 330/330/330
f 333/333/333 334/334/334 335/335/335
f 336/336/336 337/337/337 338/338/338
f 337/337/337 336/336/336 339/339/339
f 340/340/340 339/339/339 336/336/336
f 339/339/339 340/340/340 341/341/341
f 342/342/342 343/343/343 344/344/344
f 342/342/342 344/344/344 345/345/345
f 344/344/344 346/346/346 345/345/345
f 346/346/346 344/344/344 347/347/347
f 348/348/348 349/349/349 350/350/350
f 349/349/349 348/348/348 351/351/351
f 352/352/352 349/349/349 351/351/351
f 349/349/349 352/352/352 353/353/353
f 354/354/354 355/355/355 356/356/356
f 355/355/355 354/354/354 357/357/357
f 358/358/358 355/355/355 357/357/357
f 355/355/355 358/358/358 359/359/359
f 360/360/360 361/361/361 362/362/362
f 363/363/363 362/362/362 361/361/361
f 362/362/362 363/363/363 364/364/364
f 365/365/365 364/364/364 363/363/363
f 366/366/366 367/367/367 368/368/368
f 367/367/367 366/366/366 369/369/369
f 366/366/366 370/370/370 369/369/369
f 371/371/371 372/372/372 373/373/373
f 374/374/374 371/371/371 373/373/373
f 375/375/375 371/371/371 374/374/374
f 376/376/376 375/375/375 374/374/374
f 377/377/377 378/378/378 379/379/379
f 378/378/378 377/377/377 380/380/380
f 377/377/377 381/381/381 380/380/380
f 380/380/380 381/381/381 382/382/382
f 383/383/383 384/384/384 385/385/385
f 386/386/386 384/384/384 383/383/383
f 384/384/384 386/386/386 387/387/387
f 384/384/384 388/388/388 385/385/385
f 385/385/385 388/388/388 389/389/389
f 390/390/390 391/391/391 392/392/392
f 391/391/391 390/390/390 393/393/393
f 394/394/394 395/395/395 396/396/396
f 395/395/395 394/394/394 397/397/397
f 398/398/398 399/399/399 400/400/400
f 401/401/401 400/400/400 399/399/399
f 399/399/399 398/398/398 402/402/402
f 400/400/400 401/401/401 403/403/403
f 404/404/404 405/405/405 406/406/406
f 405/405/405 404/404/404 407/407/407
f 406/406/406 408/408/408 404/404/404
f 409/409/409 410/410/410 411/411/411
f 412/412/412 410/410/410 409/409/409
f 412/412/412 413/413/413 410/410/410
f 413/413/413 412/412/412 414/414/414
f 415/415/415 416/416/416 417/417/417
f 418/418/418 415/415/415 417/417/417
f 416/416/416 415/415/415 419/419/419
f 418/418/418 420/420/420 415/415/415
f 421/421/421 422/422/422 423/423/423
f 424/424/424 421/421/421 425/425/425
f 422/422/422 421/421/421 426/426/426
f 421/421/421 424/424/424 426/426/426
