# Body | length 4 | barrel -X up +Y
mtllib 06.mtl
g body
v -0.226531 0.308112 -0.000000
v 0.380639 0.259941 -0.116379
v -0.226531 0.259941 -0.116379
v 0.380639 0.308112 -0.000000
v -0.226531 0.259941 0.116378
v 0.380639 0.259941 0.116378
v -0.226531 0.259941 -0.116379
v 0.380639 0.143637 -0.164557
v -0.226531 0.143637 -0.164557
v 0.380639 0.259941 -0.116379
v 0.380639 0.259941 0.116378
v -0.226531 0.259941 0.116378
v -0.226531 0.143637 0.164556
v 0.380639 0.143637 0.164556
v -0.011169 -0.530907 0.118256
v -0.011169 -0.147083 0.118256
v -0.011169 -0.147083 -0.118256
v -0.011169 -0.530907 -0.118256
v -0.295419 0.048702 -0.118256
v -0.324076 -0.112045 0.118256
v -0.295419 0.048702 0.118256
v -0.324076 -0.112045 -0.118256
v 0.489822 0.048702 -0.118256
v -0.295419 0.048702 0.118256
v 0.489822 0.048702 0.118256
v -0.295419 0.048702 -0.118256
v 0.476870 -0.147083 -0.118256
v 0.489822 0.048702 -0.118256
v 0.513160 -0.112045 -0.118256
v 0.336903 -0.147083 -0.118256
v -0.011169 -0.147083 -0.118256
v -0.295419 0.048702 -0.118256
v 0.381515 -0.355369 -0.118256
v -0.287787 -0.147083 -0.118256
v -0.324076 -0.112045 -0.118256
v -0.011169 -0.530907 -0.118256
v 0.328706 -0.530907 -0.118256
v 0.328706 -0.530907 0.118256
v 0.381515 -0.355369 -0.118256
v 0.381515 -0.355369 0.118256
v 0.328706 -0.530907 -0.118256
v 0.336903 -0.147083 -0.118256
v 0.336903 -0.147083 0.118256
v 0.489822 0.048702 0.118256
v 0.513160 -0.112045 0.118256
v 0.513160 -0.112045 -0.118256
v 0.489822 0.048702 -0.118256
v -0.011169 -0.530907 0.118256
v 0.328706 -0.530907 -0.118256
v 0.328706 -0.530907 0.118256
v -0.011169 -0.530907 -0.118256
v 0.476870 -0.147083 0.118256
v 0.513160 -0.112045 -0.118256
v 0.513160 -0.112045 0.118256
v 0.476870 -0.147083 -0.118256
v 0.336903 -0.147083 0.118256
v 0.336903 -0.147083 -0.118256
v -0.324076 -0.112045 0.118256
v -0.324076 -0.112045 -0.118256
v -0.287787 -0.147083 -0.118256
v -0.287787 -0.147083 0.118256
v -0.011169 -0.147083 0.118256
v -0.011169 -0.147083 -0.118256
v 0.381515 -0.355369 0.118256
v -0.011169 -0.530907 0.118256
v 0.328706 -0.530907 0.118256
v -0.011169 -0.147083 0.118256
v 0.336903 -0.147083 0.118256
v 0.489822 0.048702 0.118256
v 0.476870 -0.147083 0.118256
v 0.513160 -0.112045 0.118256
v -0.295419 0.048702 0.118256
v -0.287787 -0.147083 0.118256
v -0.324076 -0.112045 0.118256
v -0.694735 0.304471 -0.000000
v -0.694735 0.107848 0.093228
v -0.694735 0.265822 0.093228
v -0.694735 0.201157 0.132021
v -0.694735 0.069199 -0.000000
v -0.694735 0.107848 -0.093228
v -0.694735 0.265822 -0.093228
v -0.694735 0.201157 -0.132021
v -0.694735 0.201157 -0.132021
v -0.674149 0.282052 -0.109497
v -0.674149 0.201157 -0.155171
v -0.674149 0.091617 -0.109497
v -0.694735 0.265822 -0.093228
v -0.694735 0.107848 -0.093228
v -0.694735 0.304471 -0.000000
v -0.694735 0.069199 -0.000000
v -0.674149 0.330907 -0.000000
v -0.674149 0.046242 -0.000000
v -0.674149 0.282052 0.109496
v -0.674149 0.091617 0.109496
v -0.694735 0.265822 0.093228
v -0.694735 0.107848 0.093228
v -0.694735 0.201157 0.132021
v -0.674149 0.201157 0.154545
v 0.371817 0.157709 0.179573
v 0.371817 0.330086 -0.000000
v 0.371817 0.157709 -0.179573
v 0.371817 0.276014 -0.130770
v 0.371817 0.276014 0.130144
v 0.657257 0.330086 -0.000000
v 0.694735 0.249904 -0.104491
v 0.657257 0.276014 -0.130770
v 0.694735 0.293159 -0.000000
v 0.694735 0.249904 0.104490
v 0.657257 0.276014 0.130144
v -0.497705 0.270014 0.153294
v -0.351982 0.270014 0.153294
v -0.497705 0.330907 -0.000000
v -0.351982 0.330907 -0.000000
v -0.674149 0.282052 0.109496
v -0.674149 0.330907 -0.000000
v -0.351982 0.270014 -0.153294
v -0.674149 0.282052 -0.109497
v -0.497705 0.270014 -0.153294
v 0.657257 0.276014 -0.130770
v 0.371817 0.276014 -0.130770
v 0.657257 0.330086 -0.000000
v 0.371817 0.330086 -0.000000
v -0.300424 0.330907 -0.000000
v -0.216332 0.276014 -0.130770
v -0.300424 0.276014 -0.130770
v 0.657257 0.276014 0.130144
v -0.216332 0.330907 -0.000000
v 0.371817 0.276014 0.130144
v -0.216332 0.276014 0.130144
v -0.300424 0.276014 0.130144
v -0.216332 0.157709 0.179573
v 0.371817 0.157709 -0.179573
v -0.216332 0.157709 -0.179573
v 0.371817 0.157709 0.179573
v -0.351982 0.330907 -0.000000
v -0.300424 0.276014 -0.130770
v -0.351982 0.270014 -0.153294
v -0.300424 0.330907 -0.000000
v -0.300424 0.276014 0.130144
v -0.351982 0.270014 0.153294
v 0.657257 0.145471 -0.184579
v 0.657257 0.276014 -0.130770
v 0.694735 0.249904 -0.104491
v 0.694735 0.145471 -0.147663
v 0.694735 0.041037 -0.104491
v 0.657257 0.014927 -0.130770
v -0.497705 -0.007717 -0.153294
v -0.351982 0.145471 -0.216489
v -0.351982 -0.007717 -0.153294
v -0.674149 0.091617 -0.109497
v -0.497705 0.145471 -0.216489
v -0.351982 0.270014 -0.153294
v -0.674149 0.201157 -0.155171
v -0.497705 0.270014 -0.153294
v -0.674149 0.282052 -0.109497
v -0.300424 0.145471 -0.184579
v 0.657257 0.145471 -0.184579
v -0.300424 0.014927 -0.130770
v 0.657257 0.014927 -0.130770
v 0.371817 0.157709 -0.179573
v 0.657257 0.276014 -0.130770
v -0.216332 0.157709 -0.179573
v 0.371817 0.276014 -0.130770
v -0.300424 0.276014 -0.130770
v -0.216332 0.276014 -0.130770
v -0.300424 0.014927 -0.130770
v -0.351982 0.145471 -0.216489
v -0.300424 0.145471 -0.184579
v -0.351982 0.270014 -0.153294
v -0.351982 -0.007717 -0.153294
v -0.300424 0.276014 -0.130770
v 0.694735 0.249904 -0.104491
v 0.694735 0.041037 -0.104491
v 0.694735 0.145471 -0.147663
v 0.694735 0.293159 -0.000000
v 0.694735 -0.002224 -0.000000
v 0.694735 0.041037 0.104490
v 0.694735 0.249904 0.104490
v 0.694735 0.145471 0.147662
v -0.216332 0.157709 0.179573
v -0.216332 0.330907 -0.000000
v -0.216332 0.276014 0.130144
v -0.216332 0.157709 -0.179573
v -0.216332 0.276014 -0.130770
v 0.657257 -0.039146 -0.000000
v 0.657257 0.014927 -0.130770
v 0.694735 0.041037 -0.104491
v 0.694735 -0.002224 -0.000000
v 0.694735 0.041037 0.104490
v 0.657257 0.014927 0.130144
v -0.674149 0.091617 0.109496
v -0.497705 -0.071168 -0.000000
v -0.497705 -0.007717 0.153294
v -0.351982 -0.007717 0.153294
v -0.674149 0.046242 -0.000000
v -0.351982 -0.071168 -0.000000
v -0.674149 0.091617 -0.109497
v -0.351982 -0.007717 -0.153294
v -0.497705 -0.007717 -0.153294
v 0.657257 -0.039146 -0.000000
v -0.300424 0.014927 -0.130770
v 0.657257 0.014927 -0.130770
v -0.300424 -0.039146 -0.000000
v -0.300424 0.014927 0.130144
v 0.657257 0.014927 0.130144
v -0.351982 -0.071168 -0.000000
v -0.351982 -0.007717 -0.153294
v -0.300424 0.014927 -0.130770
v -0.300424 -0.039146 -0.000000
v -0.300424 0.014927 0.130144
v -0.351982 -0.007717 0.153294
v 0.657257 0.145471 0.184578
v 0.694735 0.249904 0.104490
v 0.657257 0.276014 0.130144
v 0.694735 0.145471 0.147662
v 0.694735 0.041037 0.104490
v 0.657257 0.014927 0.130144
v -0.497705 0.270014 0.153294
v -0.351982 0.145471 0.216489
v -0.351982 0.270014 0.153294
v -0.497705 0.145471 0.216489
v -0.351982 -0.007717 0.153294
v -0.674149 0.201157 0.154545
v -0.674149 0.282052 0.109496
v -0.674149 0.091617 0.109496
v -0.497705 -0.007717 0.153294
v -0.300424 0.014927 0.130144
v 0.657257 0.014927 0.130144
v -0.300424 0.145471 0.184578
v 0.657257 0.145471 0.184578
v 0.371817 0.157709 0.179573
v 0.657257 0.276014 0.130144
v 0.371817 0.276014 0.130144
v -0.300424 0.276014 0.130144
v -0.216332 0.157709 0.179573
v -0.216332 0.276014 0.130144
v -0.351982 0.145471 0.216489
v -0.351982 -0.007717 0.153294
v -0.300424 0.014927 0.130144
v -0.351982 0.270014 0.153294
v -0.300424 0.145471 0.184578
v -0.300424 0.276014 0.130144
vt 17.9394 -45 
vt 18.0606 -44.9768 
vt 17.9394 -44.9768 
vt 18.0606 -45 
vt 17.9394 -45.0232 
vt 18.0606 -45.0232 
vt 18.0606 -44.9932 
vt 17.9394 -45.0164 
vt 18.0606 -45.0164 
vt 17.9394 -44.9932 
vt 18.0606 -44.9932 
vt 17.9394 -44.9932 
vt 17.9394 -45.0164 
vt 18.0606 -45.0164 
vt 20.0236 -11.0579 
vt 20.0236 -10.9812 
vt 19.9764 -10.9812 
vt 19.9764 -11.0579 
vt 19.9764 -10.9421 
vt 20.0236 -10.9742 
vt 20.0236 -10.9421 
vt 19.9764 -10.9742 
vt 20.079 -10.9764 
vt 19.9221 -11.0236 
vt 20.079 -11.0236 
vt 19.9221 -10.9764 
vt 19.9236 -10.9812 
vt 19.921 -10.9421 
vt 19.9164 -10.9742 
vt 19.9516 -10.9812 
vt 20.0211 -10.9812 
vt 20.0779 -10.9421 
vt 19.9427 -11.0228 
vt 20.0764 -10.9812 
vt 20.0836 -10.9742 
vt 20.0211 -11.0579 
vt 19.9532 -11.0579 
vt 19.9764 -11.0579 
vt 20.0236 -11.0228 
vt 19.9764 -11.0228 
vt 20.0236 -11.0579 
vt 20.0236 -10.9812 
vt 19.9764 -10.9812 
vt 19.9764 -10.9421 
vt 19.9764 -10.9742 
vt 20.0236 -10.9742 
vt 20.0236 -10.9421 
vt 20.0211 -11.0236 
vt 19.9532 -10.9764 
vt 19.9532 -11.0236 
vt 20.0211 -10.9764 
vt 19.9236 -11.0236 
vt 19.9164 -10.9764 
vt 19.9164 -11.0236 
vt 19.9236 -10.9764 
vt 19.9516 -11.0236 
vt 19.9516 -10.9764 
vt 20.0836 -11.0236 
vt 20.0836 -10.9764 
vt 20.0764 -10.9764 
vt 20.0764 -11.0236 
vt 20.0211 -11.0236 
vt 20.0211 -10.9764 
vt 20.0573 -11.0228 
vt 19.9789 -11.0579 
vt 20.0468 -11.0579 
vt 19.9789 -10.9812 
vt 20.0484 -10.9812 
vt 20.079 -10.9421 
vt 20.0764 -10.9812 
vt 20.0836 -10.9742 
vt 19.9221 -10.9421 
vt 19.9236 -10.9812 
vt 19.9164 -10.9742 
vt 28 -36.9651 
vt 28.0186 -37.0044 
vt 28.0186 -36.9728 
vt 28.0264 -36.9858 
vt 28 -37.0121 
vt 27.9814 -37.0044 
vt 27.9814 -36.9728 
vt 27.9736 -36.9858 
vt 27.9736 -36.9858 
vt 27.9781 -36.9696 
vt 27.9691 -36.9858 
vt 27.9781 -37.0076 
vt 27.9814 -36.9728 
vt 27.9814 -37.0044 
vt 28 -36.9651 
vt 28 -37.0121 
vt 28 -36.9598 
vt 28 -37.0167 
vt 28.0219 -36.9696 
vt 28.0219 -37.0076 
vt 28.0186 -36.9728 
vt 28.0186 -37.0044 
vt 28.0264 -36.9858 
vt 28.0309 -36.9858 
vt 28.0359 -36.9944 
vt 28 -36.96 
vt 27.9641 -36.9944 
vt 27.9739 -36.9708 
vt 28.0261 -36.9708 
vt 28.1313 -37 
vt 28.1388 -36.9791 
vt 28.1313 -36.9739 
vt 28.1388 -37 
vt 28.1388 -37.0209 
vt 28.1313 -37.0261 
vt 27.9006 -37.0306 
vt 27.9297 -37.0306 
vt 27.9006 -37 
vt 27.9297 -37 
vt 27.8653 -37.0219 
vt 27.8653 -37 
vt 27.9297 -36.9694 
vt 27.8653 -36.9781 
vt 27.9006 -36.9694 
vt 28.1313 -36.9739 
vt 28.0743 -36.9739 
vt 28.1313 -37 
vt 28.0743 -37 
vt 27.94 -37 
vt 27.9568 -36.9739 
vt 27.94 -36.9739 
vt 28.1313 -37.0261 
vt 27.9568 -37 
vt 28.0743 -37.0261 
vt 27.9568 -37.0261 
vt 27.94 -37.0261 
vt 27.9568 -37.0359 
vt 28.0743 -36.9641 
vt 27.9568 -36.9641 
vt 28.0743 -37.0359 
vt 27.9297 -37 
vt 27.94 -36.9739 
vt 27.9297 -36.9694 
vt 27.94 -37 
vt 27.94 -37.0261 
vt 27.9297 -37.0306 
vt 27.8687 -36.9969 
vt 27.8687 -36.9708 
vt 27.8612 -36.976 
vt 27.8612 -36.9969 
vt 27.8612 -37.0177 
vt 27.8687 -37.023 
vt 28.0994 -37.0275 
vt 28.0703 -36.9969 
vt 28.0703 -37.0275 
vt 28.1347 -37.0076 
vt 28.0994 -36.9969 
vt 28.0703 -36.972 
vt 28.1347 -36.9858 
vt 28.0994 -36.972 
vt 28.1347 -36.9696 
vt 28.06 -36.9969 
vt 27.8687 -36.9969 
vt 28.06 -37.023 
vt 27.8687 -37.023 
vt 27.9257 -36.9944 
vt 27.8687 -36.9708 
vt 28.0432 -36.9944 
vt 27.9257 -36.9708 
vt 28.06 -36.9708 
vt 28.0432 -36.9708 
vt 28.06 -37.023 
vt 28.0703 -36.9969 
vt 28.06 -36.9969 
vt 28.0703 -36.972 
vt 28.0703 -37.0275 
vt 28.06 -36.9708 
vt 28.0209 -36.976 
vt 28.0209 -37.0177 
vt 28.0295 -36.9969 
vt 28 -36.9674 
vt 28 -37.0264 
vt 27.9791 -37.0177 
vt 27.9791 -36.976 
vt 27.9705 -36.9969 
vt 27.9641 -36.9944 
vt 28 -36.9598 
vt 27.9739 -36.9708 
vt 28.0359 -36.9944 
vt 28.0261 -36.9708 
vt 27.8687 -37 
vt 27.8687 -36.9739 
vt 27.8612 -36.9791 
vt 27.8612 -37 
vt 27.8612 -37.0209 
vt 27.8687 -37.0261 
vt 28.1347 -37.0219 
vt 28.0994 -37 
vt 28.0994 -37.0306 
vt 28.0703 -37.0306 
vt 28.1347 -37 
vt 28.0703 -37 
vt 28.1347 -36.9781 
vt 28.0703 -36.9694 
vt 28.0994 -36.9694 
vt 27.8687 -37 
vt 28.06 -36.9739 
vt 27.8687 -36.9739 
vt 28.06 -37 
vt 28.06 -37.0261 
vt 27.8687 -37.0261 
vt 28.0703 -37 
vt 28.0703 -36.9694 
vt 28.06 -36.9739 
vt 28.06 -37 
vt 28.06 -37.0261 
vt 28.0703 -37.0306 
vt 28.1313 -36.9969 
vt 28.1388 -36.976 
vt 28.1313 -36.9708 
vt 28.1388 -36.9969 
vt 28.1388 -37.0177 
vt 28.1313 -37.023 
vt 27.9006 -36.972 
vt 27.9297 -36.9969 
vt 27.9297 -36.972 
vt 27.9006 -36.9969 
vt 27.9297 -37.0275 
vt 27.8653 -36.9858 
vt 27.8653 -36.9696 
vt 27.8653 -37.0076 
vt 27.9006 -37.0275 
vt 27.94 -37.023 
vt 28.1313 -37.023 
vt 27.94 -36.9969 
vt 28.1313 -36.9969 
vt 28.0743 -36.9944 
vt 28.1313 -36.9708 
vt 28.0743 -36.9708 
vt 27.94 -36.9708 
vt 27.9568 -36.9944 
vt 27.9568 -36.9708 
vt 27.9297 -36.9969 
vt 27.9297 -37.0275 
vt 27.94 -37.023 
vt 27.9297 -36.972 
vt 27.94 -36.9969 
vt 27.94 -36.9708 
vn 0.0000 1.0000 -0.0000
vn 0.0000 0.7087 -0.7087
vn 0.0000 0.7087 -0.7087
vn 0.0000 1.0000 -0.0000
vn 0.0000 0.7087 0.7087
vn 0.0000 0.7087 0.7087
vn 0.0000 0.7087 -0.7087
vn 0.0000 0.3858 -0.9213
vn 0.0000 0.3858 -0.9213
vn 0.0000 0.7087 -0.7087
vn 0.0000 0.7087 0.7087
vn 0.0000 0.7087 0.7087
vn 0.0000 0.3858 0.9213
vn 0.0000 0.3858 0.9213
vn -1.0000 0.0000 -0.0000
vn -1.0000 0.0000 -0.0000
vn -1.0000 0.0000 -0.0000
vn -1.0000 0.0000 -0.0000
vn -0.9843 0.1732 -0.0000
vn -0.9528 -0.3071 -0.0000
vn -0.9843 0.1732 -0.0000
vn -0.9528 -0.3071 -0.0000
vn 0.0000 1.0000 -0.0000
vn 0.0000 1.0000 -0.0000
vn 0.0000 1.0000 -0.0000
vn 0.0000 1.0000 -0.0000
vn 0.0000 0.0000 -1.0000
vn 0.0000 0.0000 -1.0000
vn 0.0000 0.0000 -1.0000
vn 0.0000 0.0000 -1.0000
vn 0.0000 0.0000 -1.0000
vn 0.0000 0.0000 -1.0000
vn 0.0000 0.0000 -1.0000
vn 0.0000 0.0000 -1.0000
vn 0.0000 0.0000 -1.0000
vn 0.0000 0.0000 -1.0000
vn 0.0000 0.0000 -1.0000
vn 0.9606 -0.2913 -0.0000
vn 1.0000 -0.0394 -0.0000
vn 1.0000 -0.0394 -0.0000
vn 0.9606 -0.2913 -0.0000
vn 0.9764 0.2126 -0.0000
vn 0.9764 0.2126 -0.0000
vn 0.9921 0.1417 -0.0000
vn 0.9449 -0.3228 -0.0000
vn 0.9449 -0.3228 -0.0000
vn 0.9921 0.1417 -0.0000
vn 0.0000 -1.0000 -0.0000
vn 0.0000 -1.0000 -0.0000
vn 0.0000 -1.0000 -0.0000
vn 0.0000 -1.0000 -0.0000
vn 0.3780 -0.9291 -0.0000
vn 0.9449 -0.3228 -0.0000
vn 0.9449 -0.3228 -0.0000
vn 0.3780 -0.9291 -0.0000
vn 0.0000 -1.0000 -0.0000
vn 0.0000 -1.0000 -0.0000
vn -0.9528 -0.3071 -0.0000
vn -0.9528 -0.3071 -0.0000
vn -0.3780 -0.9291 -0.0000
vn -0.3780 -0.9291 -0.0000
vn 0.0000 -1.0000 -0.0000
vn 0.0000 -1.0000 -0.0000
vn 0.0000 0.0000 1.0000
vn 0.0000 0.0000 1.0000
vn 0.0000 0.0000 1.0000
vn 0.0000 0.0000 1.0000
vn 0.0000 0.0000 1.0000
vn 0.0000 0.0000 1.0000
vn 0.0000 0.0000 1.0000
vn 0.0000 0.0000 1.0000
vn 0.0000 0.0000 1.0000
vn 0.0000 0.0000 1.0000
vn 0.0000 0.0000 1.0000
vn -1.0000 0.0000 -0.0000
vn -1.0000 0.0000 -0.0000
vn -1.0000 0.0000 -0.0000
vn -1.0000 0.0000 -0.0000
vn -1.0000 0.0000 -0.0000
vn -1.0000 0.0000 -0.0000
vn -1.0000 0.0000 -0.0000
vn -1.0000 0.0000 -0.0000
vn -0.7480 0.0551 -0.6535
vn -0.7480 0.4882 -0.4488
vn -0.7559 0.0315 -0.6614
vn -0.7402 -0.4724 -0.4724
vn -0.7480 0.4961 -0.4409
vn -0.7402 -0.4724 -0.4724
vn -0.7717 0.6378 -0.0000
vn -0.7402 -0.6693 -0.0000
vn -0.7717 0.6378 -0.0000
vn -0.7402 -0.6693 -0.0000
vn -0.7480 0.4882 0.4488
vn -0.7402 -0.4724 0.4724
vn -0.7480 0.4961 0.4409
vn -0.7402 -0.4724 0.4724
vn -0.7480 0.0551 0.6535
vn -0.7559 0.0315 0.6614
vn -1.0000 0.0000 -0.0000
vn -1.0000 0.0000 -0.0000
vn -1.0000 0.0000 -0.0000
vn -1.0000 0.0000 -0.0000
vn -1.0000 0.0000 -0.0000
vn 0.7008 0.7165 -0.0000
vn 0.7008 0.5039 -0.5039
vn 0.7008 0.5039 -0.5039
vn 0.7008 0.7165 -0.0000
vn 0.7008 0.5039 0.5039
vn 0.7008 0.5039 0.5039
vn -0.0551 0.7244 0.6929
vn 0.0000 0.7402 0.6772
vn -0.0079 1.0000 -0.0000
vn 0.0000 1.0000 -0.0000
vn -0.0866 0.7717 0.6299
vn -0.0157 1.0000 -0.0000
vn 0.0000 0.7402 -0.6772
vn -0.0866 0.7717 -0.6299
vn -0.0551 0.7244 -0.6929
vn 0.0000 0.7087 -0.7087
vn 0.0000 0.7087 -0.7087
vn 0.0000 1.0000 -0.0000
vn 0.0000 1.0000 -0.0000
vn 0.0000 1.0000 -0.0000
vn 0.0000 0.7087 -0.7087
vn 0.0000 0.7087 -0.7087
vn 0.0000 0.7087 0.7087
vn 0.0000 1.0000 -0.0000
vn 0.0000 0.7087 0.7087
vn 0.0000 0.7087 0.7087
vn 0.0000 0.7087 0.7087
vn 0.0000 1.0000 -0.0000
vn 0.0000 1.0000 -0.0000
vn 0.0000 1.0000 -0.0000
vn 0.0000 1.0000 -0.0000
vn 0.0315 1.0000 -0.0000
vn 0.1968 0.7717 -0.6063
vn 0.2913 0.6378 -0.7087
vn 0.0315 1.0000 -0.0000
vn 0.1968 0.7717 0.6063
vn 0.2913 0.6378 0.7087
vn 0.7008 0.0000 -0.7165
vn 0.7008 0.5039 -0.5039
vn 0.7008 0.5039 -0.5039
vn 0.7008 0.0000 -0.7165
vn 0.7008 -0.5039 -0.5039
vn 0.7008 -0.5039 -0.5039
vn -0.2441 -0.7008 -0.6772
vn 0.0000 0.0394 -1.0000
vn 0.0000 -0.7087 -0.7087
vn -0.4882 -0.5827 -0.6535
vn -0.1654 0.0079 -0.9843
vn 0.0000 0.7402 -0.6772
vn -0.2992 0.1339 -0.9449
vn -0.0551 0.7244 -0.6929
vn -0.0866 0.7717 -0.6299
vn 0.0000 0.0000 -1.0000
vn 0.0000 0.0000 -1.0000
vn 0.0000 -0.7087 -0.7087
vn 0.0000 -0.7087 -0.7087
vn 0.0000 0.3858 -0.9213
vn 0.0000 0.7087 -0.7087
vn 0.0000 0.3858 -0.9213
vn 0.0000 0.7087 -0.7087
vn 0.0000 0.7087 -0.7087
vn 0.0000 0.7087 -0.7087
vn 0.5276 -0.5984 -0.5984
vn 0.4882 0.0236 -0.8740
vn 0.4882 0.0236 -0.8740
vn 0.2913 0.6378 -0.7087
vn 0.5276 -0.5984 -0.5984
vn 0.1968 0.7717 -0.6063
vn 1.0000 0.0000 -0.0000
vn 1.0000 0.0000 -0.0000
vn 1.0000 0.0000 -0.0000
vn 1.0000 0.0000 -0.0000
vn 1.0000 0.0000 -0.0000
vn 1.0000 0.0000 -0.0000
vn 1.0000 0.0000 -0.0000
vn 1.0000 0.0000 -0.0000
vn 1.0000 0.0000 -0.0000
vn 1.0000 0.0000 -0.0000
vn 1.0000 0.0000 -0.0000
vn 1.0000 0.0000 -0.0000
vn 1.0000 0.0000 -0.0000
vn 0.7008 -0.7165 -0.0000
vn 0.7008 -0.5039 -0.5039
vn 0.7008 -0.5039 -0.5039
vn 0.7008 -0.7165 -0.0000
vn 0.7008 -0.5039 0.5039
vn 0.7008 -0.5039 0.5039
vn -0.4882 -0.5827 0.6535
vn -0.2677 -0.9606 -0.0000
vn -0.2441 -0.7008 0.6772
vn 0.0000 -0.7087 0.7087
vn -0.5512 -0.8346 -0.0000
vn 0.0000 -1.0000 -0.0000
vn -0.4882 -0.5827 -0.6535
vn 0.0000 -0.7087 -0.7087
vn -0.2441 -0.7008 -0.6772
vn 0.0000 -1.0000 -0.0000
vn 0.0000 -0.7087 -0.7087
vn 0.0000 -0.7087 -0.7087
vn 0.0000 -1.0000 -0.0000
vn 0.0000 -0.7087 0.7087
vn 0.0000 -0.7087 0.7087
vn 0.5276 -0.8504 -0.0000
vn 0.5276 -0.5984 -0.5984
vn 0.5276 -0.5984 -0.5984
vn 0.5276 -0.8504 -0.0000
vn 0.5276 -0.5984 0.5984
vn 0.5276 -0.5984 0.5984
vn 0.7008 0.0000 0.7165
vn 0.7008 0.5039 0.5039
vn 0.7008 0.5039 0.5039
vn 0.7008 0.0000 0.7165
vn 0.7008 -0.5039 0.5039
vn 0.7008 -0.5039 0.5039
vn -0.0551 0.7244 0.6929
vn 0.0000 0.0394 1.0000
vn 0.0000 0.7402 0.6772
vn -0.1654 0.0079 0.9843
vn 0.0000 -0.7087 0.7087
vn -0.2992 0.1339 0.9449
vn -0.0866 0.7717 0.6299
vn -0.4882 -0.5827 0.6535
vn -0.2441 -0.7008 0.6772
vn 0.0000 -0.7087 0.7087
vn 0.0000 -0.7087 0.7087
vn 0.0000 0.0000 1.0000
vn 0.0000 0.0000 1.0000
vn 0.0000 0.3858 0.9213
vn 0.0000 0.7087 0.7087
vn 0.0000 0.7087 0.7087
vn 0.0000 0.7087 0.7087
vn 0.0000 0.3858 0.9213
vn 0.0000 0.7087 0.7087
vn 0.4882 0.0236 0.8740
vn 0.5276 -0.5984 0.5984
vn 0.5276 -0.5984 0.5984
vn 0.2913 0.6378 0.7087
vn 0.4882 0.0236 0.8740
vn 0.1968 0.7717 0.6063
usemtl Meshpart1Mtl
f 1/1/1 2/2/2 3/3/3
f 1/1/1 4/4/4 2/2/2
f 5/5/5 4/4/4 1/1/1
f 5/5/5 6/6/6 4/4/4
f 7/7/7 8/8/8 9/9/9
f 8/8/8 7/7/7 10/10/10
f 11/11/11 12/12/12 13/13/13
f 11/11/11 13/13/13 14/14/14
usemtl Meshpart2Mtl
f 15/15/15 16/16/16 17/17/17
f 15/15/15 17/17/17 18/18/18
f 19/19/19 20/20/20 21/21/21
f 20/20/20 19/19/19 22/22/22
f 23/23/23 24/24/24 25/25/25
f 24/24/24 23/23/23 26/26/26
f 27/27/27 28/28/28 29/29/29
f 30/30/30 28/28/28 27/27/27
f 31/31/31 28/28/28 30/30/30
f 28/28/28 31/31/31 32/32/32
f 33/33/33 31/31/31 30/30/30
f 31/31/31 34/34/34 32/32/32
f 32/32/32 34/34/34 35/35/35
f 31/31/31 33/33/33 36/36/36
f 36/36/36 33/33/33 37/37/37
f 38/38/38 39/39/39 40/40/40
f 39/39/39 38/38/38 41/41/41
f 42/42/42 40/40/40 39/39/39
f 40/40/40 42/42/42 43/43/43
f 44/44/44 45/45/45 46/46/46
f 44/44/44 46/46/46 47/47/47
f 48/48/48 49/49/49 50/50/50
f 49/49/49 48/48/48 51/51/51
f 52/52/52 53/53/53 54/54/54
f 53/53/53 52/52/52 55/55/55
f 56/56/56 55/55/55 52/52/52
f 55/55/55 56/56/56 57/57/57
f 58/58/58 59/59/59 60/60/60
f 60/60/60 61/61/61 58/58/58
f 61/61/61 60/60/60 62/62/62
f 62/62/62 60/60/60 63/63/63
f 64/64/64 65/65/65 66/66/66
f 65/65/65 64/64/64 67/67/67
f 67/67/67 64/64/64 68/68/68
f 68/68/68 69/69/69 67/67/67
f 69/69/69 68/68/68 70/70/70
f 69/69/69 70/70/70 71/71/71
f 69/69/69 72/72/72 67/67/67
f 72/72/72 73/73/73 67/67/67
f 73/73/73 72/72/72 74/74/74
usemtl Meshpart3Mtl
f 75/75/75 76/76/76 77/77/77
f 77/77/77 76/76/76 78/78/78
f 75/75/75 79/79/79 76/76/76
f 79/79/79 75/75/75 80/80/80
f 80/80/80 75/75/75 81/81/81
f 80/80/80 81/81/81 82/82/82
f 83/83/83 84/84/84 85/85/85
f 86/86/86 83/83/83 85/85/85
f 84/84/84 83/83/83 87/87/87
f 83/83/83 86/86/86 88/88/88
f 89/89/89 84/84/84 87/87/87
f 86/86/86 90/90/90 88/88/88
f 84/84/84 89/89/89 91/91/91
f 90/90/90 86/86/86 92/92/92
f 93/93/93 91/91/91 89/89/89
f 94/94/94 90/90/90 92/92/92
f 93/93/93 89/89/89 95/95/95
f 90/90/90 94/94/94 96/96/96
f 97/97/97 93/93/93 95/95/95
f 98/98/98 96/96/96 94/94/94
f 93/93/93 97/97/97 98/98/98
f 96/96/96 98/98/98 97/97/97
f 99/99/99 100/100/100 101/101/101
f 101/101/101 100/100/100 102/102/102
f 100/100/100 99/99/99 103/103/103
f 104/104/104 105/105/105 106/106/106
f 105/105/105 104/104/104 107/107/107
f 104/104/104 108/108/108 107/107/107
f 108/108/108 104/104/104 109/109/109
f 110/110/110 111/111/111 112/112/112
f 111/111/111 113/113/113 112/112/112
f 112/112/112 114/114/114 110/110/110
f 114/114/114 112/112/112 115/115/115
f 116/116/116 112/112/112 113/113/113
f 115/115/115 112/112/112 117/117/117
f 112/112/112 116/116/116 118/118/118
f 118/118/118 117/117/117 112/112/112
f 119/119/119 120/120/120 121/121/121
f 122/122/122 121/121/121 120/120/120
f 123/123/123 124/124/124 125/125/125
f 121/121/121 122/122/122 126/126/126
f 123/123/123 127/127/127 124/124/124
f 128/128/128 126/126/126 122/122/122
f 123/123/123 129/129/129 127/127/127
f 129/129/129 123/123/123 130/130/130
f 131/131/131 132/132/132 133/133/133
f 132/132/132 131/131/131 134/134/134
f 135/135/135 136/136/136 137/137/137
f 136/136/136 135/135/135 138/138/138
f 139/139/139 138/138/138 135/135/135
f 135/135/135 140/140/140 139/139/139
f 141/141/141 142/142/142 143/143/143
f 143/143/143 144/144/144 141/141/141
f 145/145/145 141/141/141 144/144/144
f 141/141/141 145/145/145 146/146/146
f 147/147/147 148/148/148 149/149/149
f 150/150/150 151/151/151 147/147/147
f 148/148/148 147/147/147 151/151/151
f 151/151/151 152/152/152 148/148/148
f 151/151/151 150/150/150 153/153/153
f 152/152/152 151/151/151 154/154/154
f 153/153/153 154/154/154 151/151/151
f 154/154/154 153/153/153 155/155/155
f 156/156/156 157/157/157 158/158/158
f 159/159/159 158/158/158 157/157/157
f 156/156/156 160/160/160 157/157/157
f 160/160/160 161/161/161 157/157/157
f 160/160/160 156/156/156 162/162/162
f 161/161/161 160/160/160 163/163/163
f 164/164/164 162/162/162 156/156/156
f 162/162/162 164/164/164 165/165/165
f 166/166/166 167/167/167 168/168/168
f 169/169/169 168/168/168 167/167/167
f 167/167/167 166/166/166 170/170/170
f 168/168/168 169/169/169 171/171/171
f 172/172/172 173/173/173 174/174/174
f 173/173/173 172/172/172 175/175/175
f 173/173/173 175/175/175 176/176/176
f 175/175/175 177/177/177 176/176/176
f 177/177/177 175/175/175 178/178/178
f 177/177/177 178/178/178 179/179/179
f 180/180/180 181/181/181 182/182/182
f 183/183/183 181/181/181 180/180/180
f 181/181/181 183/183/183 184/184/184
f 185/185/185 186/186/186 187/187/187
f 187/187/187 188/188/188 185/185/185
f 189/189/189 185/185/185 188/188/188
f 185/185/185 189/189/189 190/190/190
f 191/191/191 192/192/192 193/193/193
f 192/192/192 194/194/194 193/193/193
f 192/192/192 191/191/191 195/195/195
f 194/194/194 192/192/192 196/196/196
f 197/197/197 192/192/192 195/195/195
f 192/192/192 198/198/198 196/196/196
f 198/198/198 192/192/192 199/199/199
f 192/192/192 197/197/197 199/199/199
f 200/200/200 201/201/201 202/202/202
f 201/201/201 200/200/200 203/203/203
f 203/203/203 200/200/200 204/204/204
f 205/205/205 204/204/204 200/200/200
f 206/206/206 207/207/207 208/208/208
f 206/206/206 208/208/208 209/209/209
f 210/210/210 206/206/206 209/209/209
f 206/206/206 210/210/210 211/211/211
f 212/212/212 213/213/213 214/214/214
f 213/213/213 212/212/212 215/215/215
f 216/216/216 215/215/215 212/212/212
f 212/212/212 217/217/217 216/216/216
f 218/218/218 219/219/219 220/220/220
f 219/219/219 218/218/218 221/221/221
f 221/221/221 222/222/222 219/219/219
f 218/218/218 223/223/223 221/221/221
f 223/223/223 218/218/218 224/224/224
f 225/225/225 221/221/221 223/223/223
f 221/221/221 225/225/225 226/226/226
f 222/222/222 221/221/221 226/226/226
f 227/227/227 228/228/228 229/229/229
f 230/230/230 229/229/229 228/228/228
f 231/231/231 232/232/232 233/233/233
f 232/232/232 231/231/231 230/230/230
f 234/234/234 235/235/235 236/236/236
f 231/231/231 229/229/229 230/230/230
f 235/235/235 234/234/234 229/229/229
f 229/229/229 231/231/231 235/235/235
f 237/237/237 238/238/238 239/239/239
f 240/240/240 241/241/241 242/242/242
f 237/237/237 239/239/239 241/241/241
f 241/241/241 240/240/240 237/237/237
